<?xml version="1.0" standalone="no"?>
<!DOCTYPE svg PUBLIC "-//W3C//DTD SVG 20010904//EN"
 "http://www.w3.org/TR/2001/REC-SVG-20010904/DTD/svg10.dtd">
<svg version="1.0" xmlns="http://www.w3.org/2000/svg"
 width="382.000000pt" height="194.000000pt" viewBox="0 0 382.000000 194.000000"
 preserveAspectRatio="xMidYMid meet">

<g transform="translate(0.000000,194.000000) scale(0.100000,-0.100000)"
fill="#000000" stroke="none">
<path d="M610 1486 c0 -426 1 -454 18 -452 15 1 17 -9 18 -72 1 -40 4 -76 8
-79 13 -14 5 -34 -19 -43 -21 -8 -25 -16 -25 -50 0 -39 1 -39 30 -33 23 4 30
2 30 -10 0 -8 -13 -20 -30 -26 l-30 -10 0 -130 c0 -72 3 -131 6 -131 3 0 15 5
27 11 21 10 21 10 3 -5 -11 -9 -23 -16 -27 -16 -5 0 -8 -99 -9 -220 l0 -220
409 0 409 0 11 28 11 27 -5 -27 -5 -28 205 0 205 0 1 53 2 52 6 -47 c8 -59 21
-74 21 -24 0 22 4 35 10 31 6 -3 10 5 10 19 0 13 -6 27 -12 29 -7 3 -4 6 7 7
l20 1 -20 10 -20 9 20 -3 c11 -2 19 -9 17 -15 -1 -7 2 -12 8 -12 6 0 9 -3 9
-7 -1 -5 -1 -29 0 -55 l1 -48 248 1 c136 1 238 3 227 6 -11 3 -130 36 -265 75
-135 39 -260 74 -279 78 -18 5 -38 13 -44 19 -6 6 -19 11 -29 11 -11 0 -18 7
-18 20 0 11 6 20 13 20 9 0 8 3 -2 9 -9 6 -11 18 -7 35 l7 27 -50 -26 c-28
-14 -54 -25 -58 -25 -17 1 91 52 117 55 15 2 94 -14 176 -36 299 -79 900 -227
941 -232 33 -3 43 -1 46 12 4 14 5 14 6 -1 0 -9 -3 -20 -9 -23 -30 -18 2 -25
120 -25 l130 0 0 239 0 240 -55 6 -55 7 0 91 0 90 55 -6 c52 -5 55 -4 55 18 0
24 -22 35 -72 35 -34 0 -35 6 -9 155 11 61 22 137 25 170 3 33 -9 -24 -27
-127 l-32 -188 -27 0 c-27 0 -28 2 -28 47 0 73 -8 47 -15 -52 -8 -101 -15
-124 -15 -47 0 28 -4 54 -10 57 -5 3 -10 12 -10 18 0 8 3 7 9 -2 6 -10 11 -5
16 19 5 21 3 36 -5 43 -10 9 -11 6 -6 -16 4 -19 3 -26 -4 -22 -15 9 -12 52 5
59 8 3 15 16 14 28 -1 22 -1 22 -9 -2 -8 -25 -8 -25 -9 -2 -1 23 -3 24 -67 19
-47 -3 -69 0 -79 9 -7 8 -22 14 -32 14 -14 1 -12 4 7 13 14 7 25 21 25 32 0
13 8 21 23 23 16 3 22 -2 22 -16 0 -11 3 -28 7 -37 5 -15 8 -14 19 6 l13 24 1
-27 c0 -24 4 -28 29 -28 28 0 29 1 36 75 8 91 -2 110 -59 112 -21 1 -50 -3
-63 -8 -19 -7 -24 -6 -20 3 2 7 -8 19 -22 26 l-26 12 25 -4 c23 -5 23 -4 8 8
-10 7 -18 16 -18 19 0 3 8 8 18 10 16 4 16 5 0 6 -11 1 -18 9 -18 21 0 20 11
26 24 13 3 -4 15 -7 25 -8 13 -1 17 4 13 17 -4 17 -5 17 -17 2 -10 -15 -12
-13 -13 15 0 17 4 31 10 31 6 0 19 10 30 22 20 23 20 23 -4 28 -19 5 -24 13
-26 48 -2 29 -8 42 -18 42 -8 0 -12 5 -9 10 4 6 12 8 18 4 7 -3 5 0 -3 8 -8 7
-14 24 -12 37 3 21 8 23 38 18 30 -5 49 6 25 15 -5 2 -13 15 -16 30 -6 22 -3
27 17 31 13 2 5 5 -19 6 -24 0 -43 6 -43 11 0 6 6 10 14 10 8 0 16 6 18 12 3
9 9 8 22 -5 21 -20 32 -22 39 -4 4 7 6 6 6 -4 1 -10 9 -16 19 -15 13 1 17 -7
17 -34 -1 -19 -3 -48 -6 -65 -3 -16 -4 -24 -2 -17 3 6 8 12 13 12 5 0 11 13
15 30 4 16 12 33 19 37 7 5 15 17 18 29 4 15 -1 23 -21 30 -58 23 -91 32 -91
25 0 -4 -16 -7 -35 -7 -19 0 -35 4 -35 8 0 4 5 8 11 8 5 0 9 10 7 23 -2 17 2
23 24 25 19 2 28 -2 31 -15 4 -16 5 -16 6 -1 2 29 41 18 42 -12 1 -17 3 -19 6
-7 2 9 8 17 13 17 4 0 6 -9 3 -20 -5 -19 -3 -20 21 -9 19 9 26 20 26 41 0 24
-4 28 -30 28 -17 0 -30 5 -30 13 0 9 -3 8 -9 -2 -5 -7 -13 -11 -19 -7 -6 3
-22 2 -36 -4 -18 -6 -26 -6 -26 1 0 6 -7 9 -15 6 -8 -4 -17 -2 -20 3 -4 6 2
10 12 10 15 0 16 2 3 11 -11 8 -6 9 23 7 25 -3 37 0 37 8 0 15 40 10 51 -7 5
-8 8 -7 12 2 3 8 6 4 6 -8 1 -16 7 -23 20 -23 23 0 31 35 31 133 l0 70 -169
-7 c-150 -5 -695 -35 -967 -52 l-100 -7 4 -28 c2 -16 9 -29 14 -29 11 0 23
-12 67 -68 23 -29 33 -53 33 -77 0 -22 4 -33 11 -28 7 4 8 0 4 -11 -9 -24 10
-56 33 -56 15 0 20 7 20 25 0 14 -4 25 -9 25 -13 0 -21 82 -10 100 9 13 10 13
5 -2 -2 -9 2 -22 11 -30 14 -11 16 -10 10 13 -8 31 9 49 38 45 11 -2 26 1 33
7 8 6 12 6 12 -2 0 -6 5 -11 11 -11 5 0 8 4 5 9 -3 4 31 9 77 10 45 1 105 4
134 7 44 4 52 3 56 -13 4 -16 5 -17 6 0 1 20 56 25 64 5 4 -10 6 -10 6 0 1 6
8 12 16 12 8 0 15 -6 15 -12 0 -10 2 -10 9 0 4 7 24 15 44 18 38 4 38 4 93
-59 8 -10 13 -25 10 -33 -3 -8 -1 -14 4 -14 6 0 10 11 10 25 0 20 5 25 25 25
22 0 25 4 25 35 l0 35 61 0 61 0 -6 -132 c-16 -319 -58 -849 -64 -810 -2 12
-7 22 -13 22 -12 0 -23 -46 -16 -70 3 -11 1 -18 -4 -14 -5 3 -10 20 -10 37
l-2 32 -6 -34 c-3 -19 -12 -36 -19 -37 -7 -1 -8 0 -2 3 13 6 13 40 0 48 -5 3
-10 -3 -10 -14 0 -12 -4 -21 -10 -21 -5 0 -9 -8 -8 -17 5 -58 0 -66 -37 -60
-19 3 -35 2 -35 -2 0 -4 -7 -8 -15 -8 -8 0 -15 6 -15 14 0 7 -4 13 -10 13 -5
0 -10 -7 -10 -15 0 -8 -4 -15 -10 -15 -5 0 -10 7 -10 16 0 9 -5 12 -12 8 -7
-4 -8 -3 -4 5 4 6 2 19 -6 28 -11 14 -10 16 15 11 22 -4 28 -1 33 16 3 14 14
22 30 24 19 1 24 -3 24 -21 0 -30 -10 -40 -26 -26 -8 6 -14 6 -18 0 -10 -15
31 -23 54 -11 15 8 20 21 20 50 0 23 7 45 18 56 12 13 18 40 22 96 l5 78 -40
5 c-22 2 -83 9 -135 15 -52 5 -160 17 -240 25 -80 9 -179 17 -221 18 -74 2
-83 7 -66 35 5 7 3 12 -5 12 -9 0 -9 3 2 10 10 7 12 12 4 18 -6 4 -11 23 -11
43 0 20 -2 43 -6 52 -4 11 -2 14 8 11 7 -3 12 -14 10 -25 -2 -10 0 -19 5 -19
5 0 7 -7 4 -15 -5 -12 4 -15 42 -17 27 -1 68 -3 91 -4 32 -1 40 1 36 12 -3 8
3 24 13 36 19 20 19 21 -3 14 -19 -6 -23 -2 -29 28 -3 20 -10 33 -15 30 -5 -3
-9 7 -9 21 0 19 -5 26 -17 24 -36 -3 -54 1 -47 12 3 6 14 9 24 6 10 -2 24 -1
31 4 18 11 -32 23 -71 17 -17 -3 -30 -1 -30 4 0 4 32 8 70 8 l70 0 0 -35 c0
-33 2 -35 21 -25 17 9 23 8 33 -6 10 -12 15 -14 20 -5 6 9 11 9 24 -1 12 -10
14 -10 8 0 -4 7 -2 12 8 12 8 0 17 -4 20 -9 10 -16 45 0 48 23 2 13 11 22 27
24 21 3 23 1 19 -26 -3 -22 -1 -29 9 -25 7 3 13 -2 13 -10 0 -20 -19 -26 -46
-16 -12 4 -24 5 -27 2 -10 -10 23 -35 38 -29 9 3 15 0 15 -8 0 -9 -8 -12 -22
-9 -22 4 -22 4 -3 -8 11 -7 23 -16 26 -21 3 -6 9 -3 12 6 12 30 23 16 20 -26
l-3 -43 14 40 c7 22 9 44 4 50 -4 5 -8 13 -8 19 0 5 6 2 13 -8 8 -10 12 -30
10 -45 l-3 -26 10 25 c9 19 13 22 20 10 5 -8 6 -18 4 -22 -3 -4 2 -5 10 -2 9
3 16 14 17 23 0 12 3 10 11 -6 13 -28 23 -29 33 -5 6 14 9 12 21 -13 8 -18 13
-23 14 -13 0 25 16 30 34 13 14 -14 16 -13 22 12 10 46 13 53 24 53 7 0 9 -8
5 -20 -4 -12 -1 -28 7 -37 7 -9 12 -18 11 -20 -6 -7 -2 -23 5 -23 5 0 10 48
11 108 1 59 3 116 4 127 2 19 -6 20 -203 27 -113 4 -278 10 -366 14 l-162 6
-4 57 c-5 68 -33 104 -85 106 -42 3 -43 -13 -1 -17 17 -2 33 -8 35 -13 2 -7
-13 -9 -37 -7 l-41 4 2 -133 c0 -84 5 -139 13 -148 8 -11 8 -15 -1 -18 -10 -4
-13 -38 -13 -125 0 -116 11 -186 34 -217 8 -11 8 -13 -1 -7 -9 4 -13 1 -13 -9
0 -12 5 -15 16 -11 14 5 15 4 4 -9 -7 -9 -19 -14 -27 -11 -7 3 -13 1 -13 -3 0
-5 6 -12 13 -14 7 -3 5 -6 -5 -6 -20 -1 -25 33 -8 44 5 3 10 12 10 18 0 7 -4
6 -10 -3 -7 -10 -10 27 -11 115 -1 81 -4 121 -9 105 -7 -23 -8 -23 -9 -3 -1
12 4 25 9 28 6 3 10 11 10 16 0 6 -5 7 -10 4 -13 -8 -13 8 2 40 9 19 9 28 0
37 -8 8 -13 69 -14 187 0 97 -3 161 -5 143 -2 -18 -9 -30 -14 -27 -5 4 -9 -1
-9 -10 0 -9 5 -13 10 -10 12 7 13 -164 2 -455 -6 -166 -8 -190 -13 -125 -4 67
-5 58 -6 -55 -1 -81 2 -125 7 -110 6 19 8 11 8 -30 -1 -30 -3 -43 -5 -27 -3
18 -10 27 -22 27 -14 0 -17 -6 -13 -25 4 -22 1 -25 -22 -25 -19 0 -26 -5 -26
-20 0 -13 -7 -20 -20 -20 -13 0 -20 7 -20 20 0 17 -7 20 -40 20 -33 0 -40 -3
-40 -20 0 -17 -7 -20 -40 -20 -39 0 -40 1 -40 34 0 30 -4 34 -31 40 -17 3 -53
6 -80 6 -42 0 -49 3 -49 20 0 13 -7 20 -20 20 -13 0 -20 -7 -20 -20 0 -13 -7
-20 -20 -20 -14 0 -20 7 -20 24 0 30 -38 56 -85 56 -28 0 -35 4 -35 20 0 11
-4 20 -10 20 -5 0 -10 9 -10 20 0 27 -18 25 -23 -2 l-4 -23 -2 23 c0 12 -8 22
-16 22 -8 0 -15 9 -15 20 0 11 -4 20 -10 20 -5 0 -10 9 -10 20 0 11 -4 20 -10
20 -5 0 -10 9 -10 20 0 11 -6 20 -14 20 -15 0 -27 46 -22 87 2 16 1 20 -1 11
-2 -10 -12 -18 -22 -18 -22 0 -41 75 -41 163 0 34 -5 78 -10 97 -12 40 6 293
21 298 5 2 9 12 9 22 0 10 4 20 9 22 11 4 21 97 10 104 -14 8 -10 24 6 24 9 0
12 -6 8 -16 -5 -14 -3 -15 12 -7 10 6 27 8 38 5 12 -3 18 -1 14 5 -3 5 5 8 21
7 91 -10 493 -36 497 -32 2 2 -141 17 -318 32 -177 15 -329 32 -337 38 -10 6
4 7 40 2 30 -4 71 -8 90 -9 19 -2 108 -8 198 -15 90 -7 165 -10 168 -7 2 2
-31 7 -73 10 -173 15 -407 41 -389 45 31 6 838 -72 855 -83 7 -3 11 -44 11
-97 0 -50 2 -89 5 -86 8 8 10 182 2 195 -4 6 -1 14 5 17 7 3 2 4 -11 3 -24 -2
-25 0 -22 51 1 32 -2 52 -8 52 -6 0 -11 -20 -11 -46 l0 -46 -57 7 c-32 4 -84
9 -115 10 -32 2 -61 6 -65 8 -5 2 -86 13 -180 23 -122 12 -173 21 -173 30 0
10 -62 13 -270 13 l-270 1 0 -454z m358 437 c-10 -2 -28 -2 -40 0 -13 2 -5 4
17 4 22 1 32 -1 23 -4z m85 -10 c-7 -2 -21 -2 -30 0 -10 3 -4 5 12 5 17 0 24
-2 18 -5z m-180 -20 c-13 -2 -35 -2 -50 0 -16 2 -5 4 22 4 28 0 40 -2 28 -4z
m442 -13 c17 -5 -6 -6 -55 -3 -47 3 -87 7 -89 9 -8 7 114 2 144 -6z m-482 -7
c-13 -2 -35 -2 -50 0 -16 2 -5 4 22 4 28 0 40 -2 28 -4z m-99 -31 c-1 -7 -2
-24 -2 -38 -1 -14 -6 -22 -12 -19 -13 8 -9 76 4 72 6 -2 11 -9 10 -15z m843
12 c-3 -3 -12 -4 -19 -1 -8 3 -5 6 6 6 11 1 17 -2 13 -5z m-738 -20 c2 -2 -12
-4 -32 -4 -21 0 -40 0 -44 -1 -4 0 -9 4 -11 9 -3 9 76 5 87 -4z m834 9 c-7 -2
-19 -2 -25 0 -7 3 -2 5 12 5 14 0 19 -2 13 -5z m-971 -40 c3 -21 4 -39 4 -40
-1 -1 -13 1 -26 4 -22 6 -23 7 -4 14 16 7 17 8 2 8 -10 1 -18 8 -18 17 0 11 5
14 16 10 12 -4 15 -2 10 9 -3 8 -2 15 3 15 5 0 11 -17 13 -37z m1218 -293 c0
-5 -13 -10 -30 -10 -16 0 -30 5 -30 10 0 6 14 10 30 10 17 0 30 -4 30 -10z m7
-81 c-1 -11 -10 -25 -20 -31 -10 -5 -16 -16 -13 -24 3 -8 1 -14 -3 -14 -5 0
-11 7 -15 15 -3 8 -1 15 5 15 6 0 9 7 5 15 -3 9 0 15 10 15 8 0 17 7 20 15 8
21 13 19 11 -6z m44 -31 c1 -7 1 -17 0 -22 -1 -5 -2 -31 -3 -58 0 -26 -5 -48
-10 -48 -6 0 -5 -6 2 -15 11 -13 10 -14 -4 -9 -18 7 -21 29 -6 39 6 4 7 13 2
23 -5 9 -7 23 -6 30 1 6 2 26 3 42 1 29 20 43 22 18z m-48 -46 c-14 -40 -39
-55 -39 -23 0 11 5 17 13 14 8 -3 13 3 13 17 0 11 4 19 10 15 5 -3 6 -13 3
-23z m577 -21 c0 -3 29 -4 65 -3 l65 4 0 -29 c0 -15 -4 -33 -8 -39 -7 -11 -82
-11 -101 0 -6 4 -11 1 -11 -6 0 -8 -3 -9 -8 -3 -4 6 -31 10 -59 10 -56 0 -60
4 -47 53 6 20 12 22 55 21 27 -1 49 -5 49 -8z m-480 -32 c0 -27 -17 -23 -22 5
-4 17 -1 23 9 19 7 -3 13 -14 13 -24z m-154 -14 c7 -27 27 -35 22 -9 -2 10 3
19 10 22 10 3 13 -3 10 -19 -5 -36 -49 -33 -59 4 -4 15 -3 27 2 27 5 0 11 -11
15 -25z m214 -8 c8 -3 1 -6 -16 -6 -20 -1 -31 4 -31 13 0 10 5 12 16 7 9 -5
23 -11 31 -14z m-160 -57 c0 -5 -6 -10 -14 -10 -8 0 -21 -3 -30 -6 -9 -3 -16
-1 -16 4 0 9 9 13 53 21 4 0 7 -3 7 -9z m-1133 -22 c-3 -8 -6 -5 -6 6 -1 11 2
17 5 13 3 -3 4 -12 1 -19z m2060 6 c-3 -3 -12 -4 -19 -1 -8 3 -5 6 6 6 11 1
17 -2 13 -5z m-924 -70 c-5 -10 -14 -20 -21 -22 -9 -2 -7 5 5 22 21 28 27 28
16 0z m-12 -81 c-12 -20 -14 -14 -5 12 4 9 9 14 11 11 3 -2 0 -13 -6 -23z
m1003 -25 c-3 -4 9 -6 25 -4 19 2 31 -1 31 -8 0 -10 -76 -14 -122 -7 -15 2 -8
20 10 23 27 7 61 4 56 -4z m-704 -63 c0 -62 -1 -65 -25 -65 -13 0 -29 -8 -35
-17 -10 -16 -11 -16 -6 -1 3 11 1 15 -9 12 -10 -4 -13 5 -12 40 0 25 -2 48 -5
51 -3 4 -4 15 -1 26 4 15 14 19 49 19 l44 0 0 -65z m-146 49 c11 -4 16 -19 16
-45 0 -32 -3 -39 -20 -39 -17 0 -20 7 -20 45 0 48 0 48 24 39z m372 -14 l34 0
-6 -77 c-5 -72 -10 -124 -13 -148 -1 -5 -6 -3 -12 5 -8 11 -12 12 -16 3 -7
-20 -23 -15 -23 6 0 27 -17 35 -29 14 -8 -14 -10 -4 -11 42 0 102 11 167 27
161 8 -4 30 -6 49 -6z m-1629 -42 c-3 -8 -6 -5 -6 6 -1 11 2 17 5 13 3 -3 4
-12 1 -19z m1058 13 c-3 -5 3 -12 12 -14 14 -4 13 -5 -4 -6 -14 -1 -23 5 -23
14 0 8 5 15 11 15 5 0 8 -4 4 -9z m463 -4 c6 -7 7 -18 3 -26 -5 -8 -7 -31 -5
-52 2 -21 -1 -41 -6 -44 -9 -6 -14 8 -11 28 1 4 -13 14 -31 22 -33 15 -33 15
-5 12 16 -2 33 -10 38 -18 5 -8 9 -9 9 -3 0 6 -3 14 -7 18 -11 11 -10 30 2 38
6 5 4 8 -5 8 -13 0 -13 1 0 10 13 8 12 10 -4 10 -14 0 -17 -6 -14 -25 4 -17 1
-25 -9 -25 -8 0 -11 5 -8 10 3 6 0 10 -7 10 -9 0 -9 3 2 10 8 5 11 10 7 10 -5
0 -5 5 -2 10 9 14 41 12 53 -3z m267 -17 c3 -5 3 -46 -1 -90 -6 -73 -9 -81
-25 -77 -12 3 -26 -4 -39 -21 l-19 -27 1 28 c1 15 8 27 15 27 7 0 13 5 13 10
0 6 -5 10 -11 10 -6 0 -17 7 -26 15 -14 14 -13 15 10 10 21 -6 25 -3 25 19 0
21 -5 26 -25 26 -15 0 -22 4 -17 11 3 6 15 8 26 6 16 -5 19 -2 15 14 -3 10 -1
19 4 19 5 0 9 6 9 13 0 15 37 20 45 7z m-630 -20 c3 -6 -1 -7 -9 -4 -18 7 -21
14 -7 14 6 0 13 -4 16 -10z m91 -100 c8 0 14 -5 14 -11 0 -5 4 -8 9 -5 4 3 6
-6 3 -20 -3 -19 -9 -23 -23 -19 -11 4 -19 2 -19 -4 0 -6 9 -11 20 -11 22 0 22
14 1 -230 -6 -69 -11 -128 -11 -132 0 -12 -48 -9 -55 3 -4 5 -4 21 -1 33 5 19
11 22 33 19 l28 -4 -25 15 c-23 14 -23 15 -5 17 17 1 17 2 3 6 -10 2 -18 13
-18 24 0 11 7 19 18 20 16 1 16 2 0 6 -13 3 -17 13 -15 39 1 19 6 34 10 34 5
0 8 42 7 93 -1 50 0 119 1 152 2 51 3 54 6 18 3 -29 9 -43 19 -43z m228 27
c-6 -16 -44 -20 -44 -4 0 5 7 6 15 3 9 -3 18 1 22 10 3 8 7 13 9 11 3 -2 2
-11 -2 -20z m550 -22 c3 -9 0 -15 -9 -15 -9 0 -12 6 -9 15 4 8 7 15 9 15 2 0
5 -7 9 -15z m93 -12 c15 3 22 0 20 -7 -2 -6 -12 -10 -21 -10 -9 1 -16 -3 -16
-9 0 -5 -8 -3 -17 6 -16 13 -20 13 -31 1 -15 -17 -36 -9 -25 9 4 7 8 15 9 20
1 4 2 10 3 13 0 4 13 -1 27 -11 15 -9 37 -15 51 -12z m-1101 -20 c1 -16 5 -37
9 -47 6 -14 5 -17 -3 -12 -9 5 -13 -9 -14 -51 -1 -50 -3 -46 -7 27 -3 47 -4
91 -2 98 6 22 16 13 17 -15z m500 -10 c1 -17 -3 -37 -7 -45 -7 -11 -9 -11 -9
1 0 8 -7 11 -20 8 -11 -3 -18 -1 -15 3 3 5 -1 11 -7 13 -7 3 0 4 16 4 18 -1
30 4 33 13 3 10 2 11 -4 3 -6 -8 -14 -9 -23 -3 -13 8 -12 10 2 10 9 0 19 4 23
9 3 6 -4 8 -15 6 -11 -2 -20 1 -20 6 0 6 10 9 22 7 18 -2 23 -10 24 -35z
m-216 1 c0 -8 -5 -12 -10 -9 -6 4 -8 11 -5 16 9 14 15 11 15 -7z m160 6 c0 -5
-4 -10 -10 -10 -5 0 -10 5 -10 10 0 6 5 10 10 10 6 0 10 -4 10 -10z m-1513 -6
c-3 -3 -12 -4 -19 -1 -8 3 -5 6 6 6 11 1 17 -2 13 -5z m1630 -16 c-3 -8 -6 -5
-6 6 -1 11 2 17 5 13 3 -3 4 -12 1 -19z m-1607 -8 c0 -5 -9 -10 -20 -10 -11 0
-20 5 -20 10 0 6 9 10 20 10 11 0 20 -4 20 -10z m1346 -10 c0 -12 -4 -16 -9
-11 -5 5 -6 14 -3 20 10 15 12 14 12 -9z m241 -17 c-3 -10 -5 -4 -5 12 0 17 2
24 5 18 2 -7 2 -21 0 -30z m496 11 c1 -10 8 -28 14 -39 11 -18 12 -19 18 -2 9
21 25 23 25 2 0 -8 8 -15 17 -15 36 0 -5 -21 -43 -21 -62 -2 -67 0 -61 20 3
15 0 17 -17 13 -20 -5 -20 -5 -3 12 15 15 15 21 5 34 -11 13 -10 15 10 10 12
-4 22 -2 22 5 0 16 9 3 13 -19z m-1116 -46 c-3 -7 -5 -2 -5 12 0 14 2 19 5 13
2 -7 2 -19 0 -25z m562 18 c18 -3 22 -28 9 -47 -8 -11 -9 -10 -4 3 6 20 -28
45 -39 28 -3 -5 1 -10 9 -10 9 0 16 -4 16 -9 0 -5 -14 -4 -30 2 -26 10 -28 13
-13 19 10 3 12 7 5 7 -7 1 -10 6 -7 12 4 6 14 7 24 4 9 -4 22 -8 30 -9z m441
-32 c0 -25 -4 -43 -8 -40 -7 4 -4 86 4 86 2 0 4 -21 4 -46z m-53 4 c-3 -8 -6
-5 -6 6 -1 11 2 17 5 13 3 -3 4 -12 1 -19z m280 -20 c-3 -7 -5 -2 -5 12 0 14
2 19 5 13 2 -7 2 -19 0 -25z m-702 -8 c3 -6 -1 -7 -9 -4 -18 7 -21 14 -7 14 6
0 13 -4 16 -10z m780 4 c18 -5 20 -12 17 -89 -3 -75 -5 -84 -22 -82 -36 6 -49
26 -39 60 5 18 9 51 9 74 0 45 2 46 35 37z m-737 -39 c2 -26 -13 -42 -23 -25
-5 8 -11 7 -21 -1 -10 -9 -14 -9 -14 0 0 18 31 25 41 10 8 -11 10 -10 8 6 -2
23 0 35 4 35 1 0 4 -11 5 -25z m-751 -47 c-3 -7 -5 -2 -5 12 0 14 2 19 5 13 2
-7 2 -19 0 -25z m-879 -51 l2 -53 -35 4 c-35 4 -35 5 -35 53 0 49 0 49 33 49
32 0 32 -1 35 -53z m1579 31 c2 -17 0 -19 -7 -8 -5 8 -6 18 -4 22 8 12 10 10
11 -14z m298 -18 c19 -8 19 -9 -2 -9 -12 -1 -25 4 -28 9 -7 12 2 12 30 0z
m395 3 c0 -23 -21 -243 -26 -271 -5 -33 -6 -34 -42 -27 -40 7 -70 27 -37 24
60 -6 60 -5 60 86 0 59 4 88 13 94 7 4 13 28 14 54 0 26 4 47 9 47 5 0 9 -3 9
-7z m-140 -22 c0 -11 5 -23 10 -26 6 -4 10 5 10 19 0 14 4 26 9 26 8 0 6 -46
-5 -158 -6 -59 -27 -68 -32 -14 -3 26 0 31 14 25 13 -5 15 -2 9 18 -4 13 -13
30 -21 38 -15 16 -19 10 -27 -39 -2 -14 -4 7 -4 45 0 39 2 73 4 78 8 15 33 6
33 -12z m-533 3 c-3 -3 -12 -4 -19 -1 -8 3 -5 6 6 6 11 1 17 -2 13 -5z m260
-9 c19 -5 21 -11 16 -58 -6 -61 -7 -62 -30 -52 -10 5 -20 9 -23 9 -3 1 -16 9
-30 19 -18 13 -20 17 -8 17 29 0 32 22 7 43 -16 13 -18 18 -6 14 11 -4 17 -1
17 9 0 10 6 14 18 10 9 -2 27 -7 39 -11z m53 -20 c-1 -5 7 -12 17 -16 16 -7
15 -8 -4 -8 -20 -1 -35 -21 -15 -21 4 0 8 -8 8 -19 0 -11 -5 -17 -13 -14 -16
6 -18 96 -2 91 6 -2 10 -8 9 -13z m-720 -42 l-1 -38 -14 25 -15 25 6 -27 c4
-18 2 -28 -5 -28 -20 0 -26 5 -23 20 2 10 -2 9 -13 -4 -18 -23 -19 -17 -4 16
9 21 39 43 62 47 4 0 7 -16 7 -36z m1107 15 c-3 -8 -6 -5 -6 6 -1 11 2 17 5
13 3 -3 4 -12 1 -19z m-1202 -68 c-3 -5 -12 -10 -18 -10 -7 0 -6 4 3 10 19 12
23 12 15 0z m485 -5 c11 -13 10 -14 -4 -9 -9 3 -16 10 -16 15 0 13 6 11 20 -6z
m40 -15 c0 -5 -5 -10 -11 -10 -5 0 -7 5 -4 10 3 6 8 10 11 10 2 0 4 -4 4 -10z
m-487 -15 c-3 -9 -8 -14 -10 -11 -3 3 -2 9 2 15 9 16 15 13 8 -4z m237 -17
c14 0 30 -4 35 -8 6 -4 29 -13 52 -19 34 -9 49 -9 76 3 29 11 39 12 66 0 18
-8 30 -18 27 -23 -8 -13 13 -25 68 -39 41 -11 52 -10 71 2 23 15 87 12 93 -5
2 -5 9 -6 15 -2 5 3 20 -6 31 -20 15 -18 39 -30 83 -40 34 -8 64 -13 67 -10 3
3 40 7 83 9 52 2 71 0 58 -6 l-20 -9 20 -2 c11 -1 25 -2 31 -2 7 0 7 -20 1
-66 -5 -36 -10 -67 -12 -69 -1 -1 -244 59 -540 133 -297 74 -540 135 -542 135
-2 0 -3 4 -3 8 0 4 16 6 35 4 33 -4 47 9 25 23 -15 9 -12 25 4 19 8 -3 17 -1
20 4 4 7 29 5 69 -5 34 -8 73 -15 87 -15z m-300 12 c0 -5 -2 -10 -4 -10 -3 0
-8 5 -11 10 -3 6 -1 10 4 10 6 0 11 -4 11 -10z m1030 -4 c0 -3 -4 -8 -10 -11
-5 -3 -10 -1 -10 4 0 6 5 11 10 11 6 0 10 -2 10 -4z m-235 -27 c-4 -5 -14 -8
-23 -8 -15 1 -15 2 1 6 9 2 14 9 11 15 -4 7 -2 8 5 4 6 -4 9 -12 6 -17z m-853
-17 c-29 -15 -49 -31 -45 -35 4 -5 1 -5 -8 -2 -8 3 -137 -49 -288 -116 -150
-66 -274 -119 -277 -117 -2 3 15 13 38 23 24 11 77 34 118 53 162 74 277 125
315 139 22 8 44 19 50 24 5 5 16 9 25 9 9 0 26 9 37 19 12 11 23 17 26 14 3
-2 14 0 24 6 10 6 23 10 28 10 6 0 -14 -12 -43 -27z m-42 -76 c0 -4 -85 -46
-155 -76 -82 -35 -40 -8 58 37 98 45 97 45 97 39z m-254 -121 c-11 -8 -25 -15
-30 -15 -6 1 0 7 14 15 32 19 40 18 16 0z m1582 -47 l-17 -33 0 28 c-1 18 3
26 10 21 8 -4 9 1 4 17 -6 20 -5 22 6 12 10 -11 10 -19 -3 -45z m-1653 12 c-3
-5 -12 -10 -18 -10 -7 0 -6 4 3 10 19 12 23 12 15 0z m-85 -40 c-19 -11 -39
-19 -45 -19 -5 0 6 8 25 19 19 11 40 19 45 19 6 0 -6 -8 -25 -19z m-180 -5 c0
-5 -69 -35 -79 -34 -5 0 68 38 77 39 1 0 2 -2 2 -5z"/>
<path d="M2562 880 c0 -19 2 -27 5 -17 2 9 2 25 0 35 -3 9 -5 1 -5 -18z"/>
<path d="M2040 682 c0 -40 4 -72 9 -72 9 0 4 129 -5 139 -2 2 -4 -28 -4 -67z"/>
<path d="M2525 450 c-16 -7 -17 -9 -3 -9 9 -1 20 4 23 9 7 11 7 11 -20 0z"/>
<path d="M1461 1933 c0 -5 4 -17 9 -28 8 -18 9 -17 9 8 1 15 -3 27 -9 27 -5 0
-10 -3 -9 -7z"/>
<path d="M1510 1915 c0 -14 4 -25 8 -25 4 0 9 11 10 25 1 14 -3 25 -8 25 -6 0
-10 -11 -10 -25z"/>
<path d="M1593 1923 c-3 -10 -8 -21 -10 -25 -10 -19 14 -5 30 17 16 22 16 25
2 25 -9 0 -18 -8 -22 -17z"/>
<path d="M1804 1893 c2 -44 4 -48 26 -45 29 3 26 -1 33 50 l5 42 -33 0 -34 0
3 -47z"/>
<path d="M1413 1823 c15 -2 37 -2 50 0 12 2 0 4 -28 4 -27 0 -38 -2 -22 -4z"/>
<path d="M1518 1813 c12 -2 30 -2 40 0 9 3 -1 5 -23 4 -22 0 -30 -2 -17 -4z"/>
<path d="M1633 1803 c9 -2 25 -2 35 0 9 3 1 5 -18 5 -19 0 -27 -2 -17 -5z"/>
<path d="M3110 1800 c-11 -7 0 -10 38 -10 28 0 52 5 52 10 0 13 -70 13 -90 0z"/>
<path d="M1718 1793 c6 -2 18 -2 25 0 6 3 1 5 -13 5 -14 0 -19 -2 -12 -5z"/>
<path d="M1573 1783 c15 -2 39 -2 55 0 15 2 2 4 -28 4 -30 0 -43 -2 -27 -4z"/>
<path d="M1698 1773 c12 -2 30 -2 40 0 9 3 -1 5 -23 4 -22 0 -30 -2 -17 -4z"/>
<path d="M1165 1640 c-3 -6 1 -7 9 -4 18 7 21 14 7 14 -6 0 -13 -4 -16 -10z"/>
<path d="M1990 1606 c0 -9 5 -16 10 -16 6 0 10 4 10 9 0 6 -4 13 -10 16 -5 3
-10 -1 -10 -9z"/>
<path d="M3080 1610 c0 -6 27 -10 60 -10 33 0 60 4 60 10 0 6 -27 10 -60 10
-33 0 -60 -4 -60 -10z"/>
<path d="M1177 1592 c-9 -10 -18 -25 -18 -33 -1 -8 -5 0 -9 16 l-8 30 -1 -37
c0 -20 -3 -43 -6 -50 -7 -18 33 -70 46 -62 6 4 6 11 -2 20 -14 17 -5 44 16 44
8 0 15 5 15 10 0 6 7 10 16 10 11 0 14 8 12 33 -4 38 -35 48 -61 19z"/>
<path d="M1287 1598 c-10 -8 -19 -32 -22 -63 -2 -27 -2 -42 1 -32 5 14 9 16
20 6 25 -21 16 -37 -26 -41 -35 -3 -39 -1 -43 22 -3 22 -4 21 -6 -6 l-1 -31
78 2 c42 1 81 0 85 -3 5 -2 61 -3 125 -1 65 1 129 2 145 2 15 0 27 4 27 8 0 5
-52 7 -115 5 -63 -1 -112 1 -109 6 5 8 -17 12 -43 9 -16 -2 -16 -1 0 39 8 17
18 31 23 30 5 0 10 10 12 23 2 17 -3 26 -17 30 -32 8 -52 -23 -49 -79 3 -49 3
-49 -29 -51 -26 -1 -33 3 -33 18 0 10 -6 19 -12 19 -17 1 33 39 51 40 11 0 11
3 1 15 -7 8 -9 15 -5 15 4 0 2 7 -5 15 -15 18 -31 19 -53 3z m43 -23 c0 -14
-4 -25 -10 -25 -5 0 -10 11 -10 25 0 14 5 25 10 25 6 0 10 -11 10 -25z"/>
<path d="M2301 1592 c-1 -10 -26 -13 -103 -12 -134 2 -128 3 -121 -17 5 -16 4
-16 -9 1 -18 22 -63 14 -54 -11 3 -8 6 -19 6 -24 0 -5 14 -9 31 -9 17 0 28 4
24 10 -3 6 -1 10 4 10 6 0 11 -4 11 -10 0 -18 48 -11 53 8 4 16 5 16 6 0 1
-11 9 -18 21 -18 17 0 19 3 10 19 -13 24 -13 31 0 31 5 0 12 -11 16 -25 6 -25
7 -25 111 -25 92 0 104 2 93 15 -6 8 -10 20 -7 27 3 8 10 2 17 -14 15 -31 50
-39 45 -10 -2 9 -4 23 -4 30 -1 8 -22 12 -70 12 -46 0 -71 4 -74 13 -4 9 -6 9
-6 -1z m43 -61 c-6 -6 -24 19 -24 34 1 6 7 1 15 -9 8 -11 12 -22 9 -25z"/>
<path d="M2569 1587 c-18 -14 -31 -45 -24 -58 3 -5 25 4 47 19 34 22 38 28 22
31 -10 2 -21 7 -24 11 -3 5 -12 3 -21 -3z"/>
<path d="M2477 1584 c-4 -4 -7 -20 -7 -36 0 -21 5 -28 20 -28 17 0 19 4 14 28
-8 32 -18 45 -27 36z"/>
<path d="M2519 1588 c-6 -21 -5 -39 2 -44 5 -3 9 6 9 20 0 21 -7 36 -11 24z"/>
<path d="M3178 1478 c-27 -53 -38 -108 -37 -188 1 -78 15 -205 18 -157 1 20 6
27 21 27 11 0 20 5 20 11 0 6 -7 8 -15 5 -21 -8 -27 12 -16 49 5 17 10 22 10
13 1 -9 6 -20 11 -23 7 -4 10 44 9 144 0 83 -1 151 -3 151 -1 0 -9 -15 -18
-32z"/>
<path d="M3078 1474 c-11 -10 -10 -71 0 -76 5 -1 6 -22 4 -45 -2 -24 -8 -40
-13 -37 -19 11 -8 -52 11 -66 11 -8 21 -21 21 -30 3 -29 17 85 18 141 1 38 -4
61 -13 69 -8 6 -16 21 -18 32 -2 11 -6 16 -10 12z"/>
<path d="M2904 1376 c-3 -14 -13 -27 -22 -29 -16 -4 -16 -5 0 -6 9 0 19 -11
21 -23 4 -20 4 -20 6 4 2 37 21 46 22 11 l1 -28 8 30 c8 29 8 29 15 7 6 -18
10 -21 17 -10 6 9 7 3 3 -17 -17 -81 -17 -85 -4 -85 8 0 20 4 28 9 11 7 10 11
-5 20 -14 8 -15 11 -4 11 12 0 12 2 2 9 -10 6 -9 11 4 22 15 12 17 12 9 0 -5
-10 -4 -12 3 -7 7 4 12 25 12 46 0 38 0 38 -50 49 -28 6 -53 11 -55 11 -3 0
-7 -11 -11 -24z"/>
<path d="M2183 1273 c9 -2 23 -2 30 0 6 3 -1 5 -18 5 -16 0 -22 -2 -12 -5z"/>
<path d="M2897 1207 c-3 -7 1 -24 8 -37 7 -13 10 -31 7 -39 -4 -9 -1 -12 7 -7
7 5 16 18 21 30 7 17 9 13 9 -21 1 -28 6 -43 14 -43 24 1 43 26 45 62 3 33 1
37 -27 43 -17 4 -31 12 -31 18 0 7 -5 6 -11 -3 -8 -11 -12 -12 -16 -2 -6 16
-20 15 -26 -1z"/>
<path d="M2600 1120 c0 -5 5 -10 11 -10 5 0 7 5 4 10 -3 6 -8 10 -11 10 -2 0
-4 -4 -4 -10z"/>
<path d="M2640 1119 c0 -4 7 -9 15 -13 9 -3 15 0 15 8 0 7 -7 13 -15 13 -8 0
-15 -4 -15 -8z"/>
<path d="M2742 880 c0 -14 2 -19 5 -12 2 6 2 18 0 25 -3 6 -5 1 -5 -13z"/>
<path d="M2715 10 c-13 -6 11 -8 70 -8 60 0 82 3 65 8 -33 11 -110 11 -135 0z"/>
</g>
</svg>
