<?xml version="1.0" standalone="no"?>
<!DOCTYPE svg PUBLIC "-//W3C//DTD SVG 20010904//EN"
 "http://www.w3.org/TR/2001/REC-SVG-20010904/DTD/svg10.dtd">
<svg version="1.0" xmlns="http://www.w3.org/2000/svg"
 width="626.000000pt" height="417.000000pt" viewBox="0 0 626.000000 417.000000"
 preserveAspectRatio="xMidYMid meet">

<g transform="translate(0.000000,417.000000) scale(0.100000,-0.100000)"
fill="#000000" stroke="none">
<path d="M3744 3661 c-38 -27 -82 -64 -99 -82 -24 -27 -21 -25 16 8 26 23 72
58 103 79 50 33 63 44 53 44 -2 0 -35 -22 -73 -49z"/>
<path d="M5080 3686 c0 -2 8 -10 18 -17 15 -13 16 -12 3 4 -13 16 -21 21 -21
13z"/>
<path d="M5172 3602 c107 -117 189 -248 238 -382 14 -39 18 -45 14 -20 -9 50
-65 176 -106 241 -41 64 -111 145 -165 192 -26 22 -20 12 19 -31z"/>
<path d="M2094 3626 c-32 -14 -50 -41 -34 -51 5 -3 22 2 37 12 25 17 27 17 20
0 -3 -9 -2 -17 2 -17 5 0 12 7 15 16 4 9 13 14 21 10 10 -3 15 1 15 13 0 10
-7 22 -16 25 -21 8 -24 8 -60 -8z"/>
<path d="M3805 3575 c-33 -25 -77 -66 -99 -93 -25 -30 -30 -38 -12 -22 15 14
29 23 31 20 3 -5 107 91 134 123 21 26 11 21 -54 -28z m-69 -83 c-18 -16 -18
-16 -6 6 6 13 14 21 18 18 3 -4 -2 -14 -12 -24z"/>
<path d="M4783 3613 c-22 -8 -14 -23 12 -23 16 0 25 6 25 15 0 15 -14 18 -37
8z"/>
<path d="M2394 3596 c-32 -14 -50 -41 -34 -51 5 -3 21 2 35 11 23 15 25 15 25
0 0 -9 5 -16 10 -16 6 0 9 6 8 13 -2 6 5 11 15 11 13 -2 17 4 15 20 -4 26 -32
31 -74 12z"/>
<path d="M4406 3595 c4 -8 17 -15 30 -15 27 0 32 15 8 24 -28 11 -44 7 -38 -9z"/>
<path d="M3949 3573 c-13 -16 -12 -17 4 -4 9 7 17 15 17 17 0 8 -8 3 -21 -13z"/>
<path d="M1795 3569 c-11 -16 -1 -19 13 -3 7 8 8 14 3 14 -5 0 -13 -5 -16 -11z"/>
<path d="M1975 3550 c17 -8 16 -9 -10 -11 -19 -1 -10 -4 25 -9 35 -4 58 -3 62
4 9 13 -23 24 -67 24 -25 1 -27 -1 -10 -8z"/>
<path d="M2099 3533 c-13 -16 -12 -17 4 -4 16 13 21 21 13 21 -2 0 -10 -8 -17
-17z"/>
<path d="M3599 3523 c-13 -16 -12 -17 4 -4 16 13 21 21 13 21 -2 0 -10 -8 -17
-17z"/>
<path d="M2275 3520 c4 -6 -7 -10 -26 -10 -52 0 -30 -7 44 -13 43 -4 66 -3 62
3 -3 6 0 11 7 11 17 2 -41 16 -70 18 -13 0 -20 -3 -17 -9z"/>
<path d="M3489 3335 c-45 -100 -60 -168 -66 -310 -10 -232 45 -451 167 -665
17 -30 22 -44 11 -30 -12 14 -47 77 -78 140 -32 63 -68 123 -81 133 -23 19
-57 76 -49 83 2 2 16 -7 32 -22 l28 -26 -6 24 c-4 13 -14 57 -23 98 -9 41 -22
80 -28 85 -7 6 -17 18 -23 28 -9 17 -15 13 -59 -40 -27 -32 -53 -61 -58 -64
-16 -12 5 -93 41 -159 22 -39 69 -98 121 -149 46 -46 77 -81 68 -78 -9 4 -16
3 -16 -1 0 -20 296 -192 331 -192 8 0 7 6 -2 19 -8 10 -25 34 -38 52 -14 20 4
7 45 -33 70 -68 107 -88 239 -129 186 -59 372 -93 566 -104 96 -6 121 -4 147
9 17 9 35 15 39 14 14 -4 156 43 204 68 40 20 55 37 99 111 l52 88 -5 -59 c-6
-55 -5 -58 11 -40 12 13 17 39 18 87 1 37 1 67 0 67 -8 0 -110 -60 -103 -60 5
0 18 5 30 12 12 6 -9 -22 -47 -63 -67 -72 -231 -207 -241 -197 -3 2 14 18 38
35 50 37 93 79 148 144 l40 48 -60 -24 c-70 -29 -72 -29 -66 -12 4 9 -7 11
-41 9 -71 -6 -76 14 -5 21 58 6 139 32 130 42 -3 2 -27 -2 -54 -10 -62 -19
-88 -19 -55 0 14 8 32 14 40 15 21 0 135 55 187 90 24 17 41 25 37 19 -4 -7
-1 -10 7 -7 14 5 54 66 48 73 -3 2 -28 -16 -57 -40 -67 -56 -147 -93 -220
-104 -31 -5 -48 -9 -37 -10 27 -1 9 -15 -42 -31 -48 -15 -156 -9 -241 14 -41
10 -61 11 -82 3 -21 -8 -35 -8 -52 0 -59 30 -170 74 -174 70 -3 -2 31 -22 75
-43 44 -21 79 -40 77 -42 -6 -6 -180 29 -211 43 -65 28 -98 36 -106 24 -9 -15
-148 27 -156 47 -2 7 -22 19 -43 28 -21 8 -41 20 -45 26 -9 14 -55 13 -56 -2
0 -7 -4 -4 -9 7 -8 20 -9 20 -9 -1 -2 -40 -16 -34 -73 28 -64 69 -70 63 -32
-27 14 -33 28 -67 31 -75 3 -8 -9 3 -26 25 -66 81 -130 233 -150 360 -13 80
-20 375 -9 369 4 -3 5 2 2 10 -3 8 4 45 15 82 11 38 19 70 17 72 -7 7 -55
-153 -67 -220 -6 -38 -13 -68 -16 -68 -8 0 6 113 27 213 18 84 18 92 2 121 -9
17 -15 34 -14 39 1 4 -1 7 -4 7 -3 0 -19 -29 -35 -65z m-120 -552 c1 -18 -3
-33 -8 -33 -5 0 -21 -23 -35 -52 -23 -45 -26 -48 -26 -24 0 15 -5 36 -11 47
-8 16 -6 29 11 62 12 23 29 50 38 60 16 18 17 18 23 -5 4 -12 7 -38 8 -55z
m178 35 c-3 -8 -6 -5 -6 6 -1 11 2 17 5 13 3 -3 4 -12 1 -19z m-10 -40 c-3 -8
-6 -5 -6 6 -1 11 2 17 5 13 3 -3 4 -12 1 -19z m36 -73 c3 -16 21 -74 40 -127
18 -54 32 -98 31 -98 -9 0 -64 123 -83 184 -15 48 -19 80 -14 105 l7 36 7 -35
c4 -19 10 -48 12 -65z m-203 -5 c-24 -15 -37 -11 -16 5 11 8 22 12 25 9 3 -3
-1 -9 -9 -14z m20 -58 c0 -10 -71 -45 -77 -38 -3 2 12 14 34 25 45 24 43 23
43 13z m1170 -352 c8 -5 11 -10 5 -10 -5 0 -17 5 -25 10 -8 5 -10 10 -5 10 6
0 17 -5 25 -10z m-33 -16 c-3 -3 -12 -4 -19 -1 -8 3 -5 6 6 6 11 1 17 -2 13
-5z m583 -28 c-12 -16 -80 -58 -80 -51 0 4 82 64 89 65 2 0 -2 -7 -9 -14z
m-238 -48 c-6 -6 -15 -8 -19 -4 -4 4 -1 11 7 16 19 12 27 3 12 -12z m-27 -64
c-33 -27 -158 -83 -195 -89 -26 -4 -20 0 25 18 33 13 87 37 120 55 67 35 79
39 50 16z m-238 -100 c-3 -3 -12 -4 -19 -1 -8 3 -5 6 6 6 11 1 17 -2 13 -5z"/>
<path d="M2517 3384 c-4 -4 -7 -14 -7 -23 0 -11 3 -12 11 -4 6 6 10 16 7 23
-2 6 -7 8 -11 4z"/>
<path d="M1745 3360 c11 -5 38 -9 60 -9 31 0 36 2 20 9 -11 5 -38 9 -60 9 -31
0 -36 -2 -20 -9z"/>
<path d="M3420 3366 c0 -2 7 -7 16 -10 8 -3 12 -2 9 4 -6 10 -25 14 -25 6z"/>
<path d="M5148 3335 c2 -14 6 -25 8 -25 2 0 4 11 4 25 0 14 -4 25 -9 25 -4 0
-6 -11 -3 -25z"/>
<path d="M3355 3341 c-11 -5 -47 -17 -80 -27 -52 -16 -205 -105 -205 -118 0
-3 29 13 64 35 71 45 137 72 236 100 44 12 55 18 35 18 -16 0 -39 -4 -50 -8z"/>
<path d="M2040 3332 c0 -12 100 -21 107 -9 2 4 -7 7 -20 7 -14 0 -39 3 -56 6
-19 4 -31 2 -31 -4z"/>
<path d="M4083 3333 c9 -2 25 -2 35 0 9 3 1 5 -18 5 -19 0 -27 -2 -17 -5z"/>
<path d="M4150 3313 c0 -10 5 -25 10 -33 7 -11 10 -7 10 18 0 17 -4 32 -10 32
-5 0 -10 -8 -10 -17z"/>
<path d="M4536 3289 c-190 -8 -228 -12 -215 -22 2 -2 83 0 179 4 515 22 478
22 483 2 3 -10 11 -51 18 -90 7 -40 16 -73 21 -73 5 0 6 10 3 23 -3 12 -11 54
-18 92 l-12 70 -125 1 c-69 1 -219 -3 -334 -7z"/>
<path d="M1631 3251 c-11 -11 -27 -34 -36 -50 -14 -28 -20 -31 -65 -31 -48 0
-49 -1 -59 -35 -19 -68 6 -88 135 -106 59 -8 69 -7 112 15 26 13 74 32 106 41
60 18 210 25 261 13 17 -4 24 -5 18 -2 -17 7 -16 29 2 64 13 25 13 29 -1 34
-8 3 -13 2 -10 -2 5 -9 -80 -9 -90 0 -4 4 -18 5 -32 1 -18 -4 -23 -2 -20 8 6
17 48 25 48 9 0 -7 9 -9 23 -5 17 5 19 4 7 -4 -9 -7 -10 -11 -3 -11 6 0 15 5
19 11 3 6 23 9 44 7 21 -2 36 0 33 5 -3 5 -22 7 -44 6 -21 -2 -41 0 -45 4 -4
4 -24 7 -44 7 -39 0 -72 -26 -85 -67 -3 -13 -14 -23 -23 -23 -9 0 -33 -3 -52
-5 -53 -8 -65 4 -47 48 14 32 14 35 0 30 -11 -4 -14 -2 -9 5 4 7 3 12 -3 12
-5 0 -12 -4 -15 -8 -5 -9 -31 -9 -56 1 -8 3 -24 5 -35 4 -22 -2 -34 15 -14 22
8 2 9 -1 4 -10 -5 -8 -4 -10 0 -6 12 11 15 37 4 37 -5 0 -18 -9 -28 -19z m109
-161 c0 -5 -4 -10 -10 -10 -5 0 -10 5 -10 10 0 6 5 10 10 10 6 0 10 -4 10 -10z"/>
<path d="M1683 3253 c4 -3 37 -7 75 -9 61 -2 63 -1 22 6 -56 11 -105 12 -97 3z"/>
<path d="M4808 3253 c7 -3 16 -2 19 1 4 3 -2 6 -13 5 -11 0 -14 -3 -6 -6z"/>
<path d="M4878 3253 c7 -3 16 -2 19 1 4 3 -2 6 -13 5 -11 0 -14 -3 -6 -6z"/>
<path d="M4607 3243 c13 -2 24 -13 26 -26 4 -18 5 -17 6 6 1 23 -3 27 -26 26
-23 -1 -24 -2 -6 -6z"/>
<path d="M4668 3243 c7 -3 16 -2 19 1 4 3 -2 6 -13 5 -11 0 -14 -3 -6 -6z"/>
<path d="M1710 3229 c0 -5 5 -7 10 -4 6 3 10 8 10 11 0 2 -4 4 -10 4 -5 0 -10
-5 -10 -11z"/>
<path d="M4871 3224 c0 -11 3 -14 6 -6 3 7 2 16 -1 19 -3 4 -6 -2 -5 -13z"/>
<path d="M4561 3214 c0 -11 3 -14 6 -6 3 7 2 16 -1 19 -3 4 -6 -2 -5 -13z"/>
<path d="M2700 3198 c0 -19 2 -20 10 -8 13 19 13 30 0 30 -5 0 -10 -10 -10
-22z"/>
<path d="M4093 3213 c9 -2 25 -2 35 0 9 3 1 5 -18 5 -19 0 -27 -2 -17 -5z"/>
<path d="M3320 3175 c-36 -20 -76 -47 -90 -61 -19 -20 -14 -18 21 8 25 19 68
44 97 56 29 13 52 25 52 27 0 10 -17 4 -80 -30z"/>
<path d="M4780 3171 c0 -12 -8 -21 -22 -24 -20 -4 -19 -4 5 -6 23 -1 27 3 27
24 0 14 -2 25 -5 25 -3 0 -5 -9 -5 -19z"/>
<path d="M4591 3164 c0 -11 3 -14 6 -6 3 7 2 16 -1 19 -3 4 -6 -2 -5 -13z"/>
<path d="M4661 3164 c0 -11 3 -14 6 -6 3 7 2 16 -1 19 -3 4 -6 -2 -5 -13z"/>
<path d="M4712 3160 c0 -14 2 -19 5 -12 2 6 2 18 0 25 -3 6 -5 1 -5 -13z"/>
<path d="M4640 3157 c0 -8 -10 -18 -22 -20 l-23 -4 23 -2 c22 -1 41 23 28 36
-3 4 -6 -1 -6 -10z"/>
<path d="M5432 3145 c0 -11 4 -31 8 -45 6 -20 8 -21 8 -5 0 11 -4 31 -8 45 -6
20 -8 21 -8 5z"/>
<path d="M4818 3143 c6 -2 18 -2 25 0 6 3 1 5 -13 5 -14 0 -19 -2 -12 -5z"/>
<path d="M4533 3133 c9 -2 23 -2 30 0 6 3 -1 5 -18 5 -16 0 -22 -2 -12 -5z"/>
<path d="M3027 3081 c-26 -27 -57 -70 -69 -95 -21 -43 -21 -50 -9 -109 7 -34
17 -69 22 -77 7 -11 8 -8 3 9 -8 30 -8 144 1 171 4 11 11 17 17 14 7 -4 8 -2
4 5 -7 11 26 63 67 104 10 10 17 21 14 23 -2 2 -25 -18 -50 -45z"/>
<path d="M5260 3090 c11 -16 26 -33 32 -36 7 -4 -1 9 -16 29 -34 44 -46 50
-16 7z"/>
<path d="M2280 3085 c-15 -39 -13 -47 10 -35 21 11 27 44 10 55 -6 3 -15 -6
-20 -20z"/>
<path d="M4113 3093 c15 -2 37 -2 50 0 12 2 0 4 -28 4 -27 0 -38 -2 -22 -4z"/>
<path d="M3186 3073 c-6 -14 -5 -15 5 -6 7 7 10 15 7 18 -3 3 -9 -2 -12 -12z"/>
<path d="M3622 3060 c0 -14 2 -19 5 -12 2 6 2 18 0 25 -3 6 -5 1 -5 -13z"/>
<path d="M3897 3056 c-15 -11 -17 -25 -13 -82 6 -94 14 -124 36 -124 36 0 41
22 24 116 -9 49 -19 92 -23 96 -3 4 -14 1 -24 -6z"/>
<path d="M5082 3023 c5 -25 28 -28 28 -4 0 12 -6 21 -16 21 -9 0 -14 -7 -12
-17z"/>
<path d="M5160 3030 c0 -5 5 -10 10 -10 6 0 10 5 10 10 0 6 -4 10 -10 10 -5 0
-10 -4 -10 -10z"/>
<path d="M4803 3013 c9 -2 25 -2 35 0 9 3 1 5 -18 5 -19 0 -27 -2 -17 -5z"/>
<path d="M4588 3003 c12 -2 32 -2 45 0 12 2 2 4 -23 4 -25 0 -35 -2 -22 -4z"/>
<path d="M3201 2971 c-63 -89 -79 -197 -40 -277 11 -23 26 -47 33 -53 7 -6 3
10 -10 36 -18 35 -24 63 -24 113 0 74 11 116 47 173 28 44 23 50 -6 8z"/>
<path d="M3611 2974 c0 -11 3 -14 6 -6 3 7 2 16 -1 19 -3 4 -6 -2 -5 -13z"/>
<path d="M3329 2953 c-42 -47 -55 -71 -17 -30 36 37 61 41 80 13 5 -8 8 -8 8
0 0 6 -7 17 -15 24 -8 7 -15 9 -15 4 0 -5 -4 -3 -8 4 -6 9 -15 5 -33 -15z"/>
<path d="M2393 2954 c-8 -20 8 -36 26 -25 15 10 8 41 -9 41 -6 0 -13 -7 -17
-16z"/>
<path d="M4148 2963 c12 -2 30 -2 40 0 9 3 -1 5 -23 4 -22 0 -30 -2 -17 -4z"/>
<path d="M4726 2955 c-9 -26 -7 -32 5 -12 6 10 9 21 6 23 -2 3 -7 -2 -11 -11z"/>
<path d="M2696 2900 c-12 -98 27 -252 78 -315 10 -12 7 1 -7 30 -39 79 -49
122 -56 240 l-7 110 -8 -65z"/>
<path d="M1398 2891 c-61 -20 -149 -67 -146 -79 1 -4 -4 -18 -10 -32 -6 -14
-22 -54 -36 -89 l-26 -64 36 -34 c44 -41 110 -76 126 -67 6 4 8 3 5 -3 -4 -6
6 -16 23 -22 50 -17 37 13 -22 54 -83 55 -88 61 -88 89 0 41 71 110 155 152
73 36 103 69 92 98 -8 20 -38 19 -109 -3z"/>
<path d="M5300 2900 c-22 -7 -21 -8 13 -9 20 -1 37 4 37 9 0 11 -14 11 -50 0z"/>
<path d="M2537 2878 c-4 -14 -9 -34 -13 -45 -3 -10 2 -5 11 10 9 16 15 36 13
45 -3 12 -6 9 -11 -10z"/>
<path d="M5230 2873 c0 -23 5 -33 15 -33 18 0 18 8 0 40 l-14 25 -1 -32z"/>
<path d="M2987 2883 c-4 -6 -6 -35 -5 -65 2 -72 52 -162 141 -253 l68 -70 -59
75 c-86 108 -93 123 -136 315 -1 5 -5 4 -9 -2z"/>
<path d="M4170 2842 c0 -5 13 -7 29 -4 26 3 30 0 36 -27 7 -34 25 -42 25 -12
0 40 -11 51 -51 51 -21 0 -39 -4 -39 -8z"/>
<path d="M5360 2829 c0 -5 5 -7 10 -4 6 3 10 8 10 11 0 2 -4 4 -10 4 -5 0 -10
-5 -10 -11z"/>
<path d="M1136 2780 c-54 -41 -106 -116 -106 -153 0 -56 119 -146 245 -187 22
-7 35 -15 30 -17 -31 -10 -245 97 -292 147 -26 28 -53 39 -53 22 0 -37 122
-106 308 -173 50 -19 92 -38 92 -43 0 -4 -8 -5 -17 -1 -24 9 -113 27 -140 29
-11 0 -19 4 -17 7 2 4 -3 9 -10 12 -8 3 -16 2 -18 -2 -6 -17 -125 49 -171 95
-26 25 -47 40 -47 33 0 -25 42 -99 67 -119 14 -11 21 -20 16 -20 -6 0 -31 20
-56 45 -48 49 -70 46 -40 -5 15 -26 26 -35 36 -28 1 1 36 -17 77 -39 60 -33
205 -90 299 -119 8 -3 12 -6 9 -9 -4 -4 -203 44 -243 59 -18 7 -18 6 -3 -6 9
-7 25 -18 35 -25 15 -10 13 -10 -12 -4 -44 12 -114 49 -157 83 -21 16 -38 25
-38 20 0 -15 50 -72 62 -72 6 0 32 -13 57 -28 25 -16 77 -41 114 -57 37 -17
63 -31 58 -33 -5 -2 -22 3 -38 12 -16 8 -47 17 -68 21 -58 11 -132 53 -171 99
-40 47 -45 35 -9 -19 l26 -37 -36 22 c-38 24 -44 18 -17 -18 16 -20 32 -28 65
-31 5 -1 5 -6 1 -13 -5 -7 -3 -8 5 -3 7 4 23 3 34 -3 30 -13 145 -47 247 -73
47 -11 87 -23 89 -25 15 -15 -184 24 -259 51 -25 9 -49 11 -62 6 -18 -6 -10
-11 46 -26 69 -19 88 -32 66 -45 -17 -11 -7 -16 122 -56 62 -20 125 -43 140
-52 23 -13 35 -14 95 -3 50 10 75 10 96 2 16 -6 30 -11 33 -11 6 0 -41 70
-108 162 -30 41 -59 97 -77 149 -29 83 -29 83 -78 101 -44 17 -31 17 26 1 20
-5 23 -3 18 11 -4 10 -7 28 -7 41 0 18 -7 25 -29 30 -15 3 -64 26 -107 51
-107 62 -124 68 -124 46 0 -15 -2 -15 -11 -2 -8 11 -9 8 -5 -15 l6 -30 -24 28
c-14 15 -32 27 -41 27 -10 0 -15 10 -15 31 0 45 14 68 83 131 66 62 68 77 3
28z m207 -304 c56 -26 40 -29 -34 -7 -78 24 -168 79 -150 91 8 4 39 -7 79 -29
37 -20 84 -45 105 -55z"/>
<path d="M2511 2801 c-8 -6 -9 -11 -3 -15 6 -3 14 -1 17 5 9 14 2 20 -14 10z"/>
<path d="M1422 2777 c-37 -26 -102 -114 -102 -139 0 -9 3 -24 6 -32 10 -25 83
56 101 112 9 26 20 53 26 60 18 22 2 22 -31 -1z"/>
<path d="M5270 2780 c0 -5 16 -10 35 -10 19 0 35 5 35 10 0 6 -16 10 -35 10
-19 0 -35 -4 -35 -10z"/>
<path d="M5362 2761 c4 -13 18 -16 19 -4 0 4 -5 9 -11 12 -7 2 -11 -2 -8 -8z"/>
<path d="M4823 2742 c-56 -3 -63 -5 -63 -24 0 -20 3 -21 83 -15 45 4 103 7
130 7 41 0 47 3 47 21 0 22 16 21 -197 11z"/>
<path d="M4564 2714 c3 -9 6 -18 6 -20 0 -2 7 -4 16 -4 11 0 14 5 10 16 -3 9
-6 18 -6 20 0 2 -7 4 -16 4 -11 0 -14 -5 -10 -16z"/>
<path d="M4706 2715 c4 -8 12 -15 20 -15 8 0 14 7 14 15 0 8 -9 15 -20 15 -13
0 -18 -5 -14 -15z"/>
<path d="M5280 2709 c0 -9 9 -27 20 -40 26 -32 27 -3 0 31 -15 19 -20 21 -20
9z"/>
<path d="M5445 2698 c-4 -10 8 -35 31 -65 20 -26 54 -84 75 -128 28 -58 37
-70 32 -45 -14 83 -125 272 -138 238z"/>
<path d="M5371 2644 c0 -11 3 -14 6 -6 3 7 2 16 -1 19 -3 4 -6 -2 -5 -13z"/>
<path d="M4246 2633 c-6 -14 -5 -15 5 -6 7 7 10 15 7 18 -3 3 -9 -2 -12 -12z"/>
<path d="M5302 2616 c8 -26 8 -46 0 -73 -10 -34 -10 -36 3 -19 19 25 19 100 1
115 -12 10 -13 7 -4 -23z"/>
<path d="M5266 2606 c-9 -14 -16 -29 -16 -34 0 -8 -88 -98 -145 -147 l-30 -26
30 18 c68 41 200 191 183 209 -3 2 -13 -7 -22 -20z"/>
<path d="M1381 2597 c-11 -21 -12 -30 -3 -39 17 -17 24 -5 20 33 l-3 33 -14
-27z"/>
<path d="M4880 2614 c-14 -2 -60 -6 -103 -9 -64 -6 -78 -10 -75 -23 4 -22 28
-27 28 -5 0 15 2 16 10 3 10 -16 56 -17 188 -4 52 5 62 9 62 25 0 16 -7 19
-42 18 -24 -1 -54 -3 -68 -5z"/>
<path d="M4582 2579 c1 -13 8 -23 13 -21 15 3 12 35 -3 40 -9 3 -13 -3 -10
-19z"/>
<path d="M4834 2538 c-3 -4 4 -8 15 -8 12 0 21 4 21 8 0 5 -7 9 -15 9 -9 0
-18 -4 -21 -9z"/>
<path d="M5371 2533 c-1 -6 4 -24 10 -40 6 -15 15 -55 19 -88 l9 -60 -3 65
c-3 55 -33 159 -35 123z"/>
<path d="M3200 2496 c0 -2 8 -10 18 -17 15 -13 16 -12 3 4 -13 16 -21 21 -21
13z"/>
<path d="M3927 2479 c7 -7 15 -10 18 -7 3 3 -2 9 -12 12 -14 6 -15 5 -6 -5z"/>
<path d="M5510 2475 c0 -5 7 -32 15 -59 17 -57 20 -177 4 -209 -10 -21 -9 -21
10 2 26 29 28 100 6 185 -15 56 -34 102 -35 81z"/>
<path d="M3976 2445 c10 -8 24 -14 29 -14 6 0 1 6 -9 14 -11 8 -24 15 -30 15
-5 0 -1 -7 10 -15z"/>
<path d="M5322 2430 c0 -14 2 -19 5 -12 2 6 2 18 0 25 -3 6 -5 1 -5 -13z"/>
<path d="M2560 2425 c0 -5 5 -17 10 -25 5 -8 10 -10 10 -5 0 6 -5 17 -10 25
-5 8 -10 11 -10 5z"/>
<path d="M5328 2337 c-6 -74 -32 -138 -79 -193 l-33 -39 38 35 c55 51 78 103
84 188 2 39 2 72 0 72 -3 0 -8 -28 -10 -63z"/>
<path d="M5213 2368 c-6 -8 -7 -35 -4 -63 l7 -50 12 40 c20 68 12 107 -15 73z"/>
<path d="M4975 2360 c-3 -6 1 -7 9 -4 18 7 21 14 7 14 -6 0 -13 -4 -16 -10z"/>
<path d="M2500 2251 c-18 -34 -69 -98 -128 -160 -29 -30 -52 -60 -52 -67 0 -6
-9 -14 -19 -17 -21 -5 -26 -28 -37 -159 -11 -136 -63 -185 -206 -196 -44 -3
-73 -1 -82 7 -8 7 -19 51 -26 112 -11 89 -16 103 -42 129 -16 17 -39 30 -51
30 -15 0 -18 -3 -10 -8 10 -6 16 -121 24 -462 6 -262 15 -457 20 -461 5 -3 -2
-11 -17 -18 -44 -20 -18 -25 33 -6 63 23 79 39 33 31 l-35 -6 40 19 c22 11 46
20 53 20 7 1 10 5 7 11 -12 20 13 47 44 45 17 -1 32 4 35 12 3 7 11 13 18 13
9 0 9 -3 0 -12 -7 -7 -11 -21 -11 -33 1 -13 3 -15 5 -5 3 9 14 21 24 28 17 10
28 9 68 -10 31 -15 47 -29 46 -40 -1 -10 4 -18 12 -18 9 0 14 -11 14 -28 0
-39 8 -44 44 -25 39 20 48 34 34 50 -8 10 -6 19 7 33 16 18 16 21 1 44 -18 29
-13 35 27 30 33 -3 55 -20 68 -49 8 -17 9 -16 6 7 -6 40 13 40 63 -1 l45 -36
0 -125 0 -125 -30 -6 c-16 -4 -47 -7 -67 -8 l-38 -1 -1 68 c0 37 0 93 1 125 1
55 0 58 -18 48 -16 -9 -18 -19 -15 -63 2 -29 9 -71 14 -93 13 -50 2 -121 -16
-104 -5 6 -14 112 -15 177 l0 44 -27 -32 c-25 -30 -26 -34 -15 -78 6 -26 14
-64 18 -85 3 -20 11 -40 16 -43 15 -10 -326 -154 -364 -154 -9 0 -20 -5 -23
-10 -4 -6 -9 -8 -13 -6 -4 2 -23 -5 -42 -16 -19 -10 -27 -17 -17 -14 59 19 70
19 83 1 13 -17 16 -17 77 3 102 33 248 99 268 121 21 22 80 36 219 51 52 6
103 13 115 16 11 2 34 6 50 8 33 5 252 81 269 95 6 4 35 16 64 26 46 17 52 22
52 47 0 15 -1 28 -2 28 -2 0 -25 -7 -52 -15 -64 -19 -66 -19 -66 8 0 16 -9 28
-26 35 -21 10 -25 18 -22 45 2 24 8 33 24 35 21 3 27 -19 10 -46 -12 -19 25
-15 39 5 11 15 18 16 61 5 33 -8 63 -9 94 -3 l45 9 -51 1 c-28 1 -78 4 -111 7
l-60 7 -2 82 c-3 111 5 119 134 146 55 12 106 25 113 28 7 4 -17 23 -63 50
-244 138 -548 448 -585 595 -6 22 -21 63 -34 90 -13 28 -22 56 -19 63 6 15 33
18 33 3 0 -5 4 -10 10 -10 5 0 0 19 -10 43 -11 23 -20 56 -20 73 0 16 -6 39
-14 49 -13 18 -14 18 -26 -4z m-506 -697 c-4 -53 -15 -60 -28 -18 -4 14 -1 28
9 38 22 22 23 21 19 -20z m162 -53 c-8 -12 -55 -20 -61 -11 -6 10 12 18 43 19
13 1 21 -3 18 -8z m-150 -23 c3 -20 -25 -33 -40 -18 -7 7 -6 10 2 10 6 0 9 7
5 16 -4 12 -1 15 12 13 10 -2 19 -12 21 -21z m144 -43 c-7 -8 -24 -15 -39 -15
-25 1 -25 1 -7 15 11 8 29 15 39 15 16 0 17 -3 7 -15z m-150 -5 c12 -8 11 -10
-7 -10 -13 0 -23 5 -23 10 0 13 11 13 30 0z m459 6 c-2 -2 -15 -9 -29 -15 -24
-11 -24 -11 -6 3 16 13 49 24 35 12z m-449 -36 c-20 -13 -40 -13 -40 0 0 6 12
10 28 10 21 0 24 -2 12 -10z m135 -31 c-8 -12 -45 -12 -45 0 0 10 30 20 43 14
4 -3 5 -9 2 -14z m-148 -5 c-3 -3 -12 -4 -19 -1 -8 3 -5 6 6 6 11 1 17 -2 13
-5z m13 -24 c-20 -13 -40 -13 -40 0 0 6 12 10 28 10 21 0 24 -2 12 -10z m0
-60 c0 -19 -5 -30 -14 -30 -23 0 -29 33 -10 47 24 17 24 17 24 -17z m305 21
c19 -4 1 -7 -50 -7 -44 0 -102 -3 -130 -6 l-50 -7 40 14 c42 14 139 17 190 6z
m-2 -48 c-13 -2 -33 -2 -45 0 -13 2 -3 4 22 4 25 0 35 -2 23 -4z m387 -155 c0
-4 -7 -8 -15 -8 -8 0 -15 4 -15 8 0 5 7 9 15 9 8 0 15 -4 15 -9z m-360 -18 c0
-5 -4 -10 -10 -10 -5 0 -10 5 -10 10 0 6 5 10 10 10 6 0 10 -4 10 -10z m444
-16 c9 -24 7 -28 -9 -14 -17 14 -20 30 -6 30 5 0 12 -7 15 -16z m-74 -9 c9
-11 10 -19 3 -26 -6 -6 -13 -1 -21 16 -13 28 -2 34 18 10z"/>
<path d="M890 2229 c0 -6 -6 -7 -12 -3 -9 5 -10 4 -3 -3 10 -10 76 -35 80 -31
2 2 -13 13 -31 25 -19 12 -34 18 -34 12z"/>
<path d="M5400 2123 c-24 -25 -67 -56 -95 -69 -65 -30 -42 -31 27 -1 46 21 82
54 112 105 11 19 4 13 -44 -35z"/>
<path d="M5745 2094 c-23 -45 -60 -95 -91 -124 -39 -37 -49 -52 -40 -59 13
-11 64 36 103 94 21 32 76 156 71 161 -2 1 -21 -31 -43 -72z"/>
<path d="M3020 1905 c0 -9 192 -131 312 -198 256 -143 535 -247 838 -311 164
-34 190 -38 190 -28 0 6 -26 13 -57 17 -66 7 -235 45 -335 74 -274 79 -621
239 -880 407 -38 24 -68 41 -68 39z"/>
<path d="M300 1890 c0 -5 4 -10 9 -10 6 0 13 5 16 10 3 6 -1 10 -9 10 -9 0
-16 -4 -16 -10z"/>
<path d="M351 1883 c-9 -10 -27 -14 -52 -11 -45 4 -43 11 -40 -122 2 -97 20
-160 45 -160 7 0 13 -7 13 -16 0 -10 -7 -14 -18 -11 -24 6 -29 -21 -23 -113 9
-138 14 -159 35 -165 10 -4 19 -13 19 -22 0 -9 -6 -13 -14 -10 -21 8 -29 -40
-22 -126 13 -143 14 -146 51 -153 38 -7 75 9 75 33 0 11 6 14 23 8 55 -17 107
-28 112 -23 10 10 -8 188 -19 188 -19 0 -41 -18 -33 -27 5 -4 12 -1 16 6 5 8
11 9 15 3 3 -5 -1 -15 -9 -22 -13 -11 -13 -15 -2 -29 8 -9 15 -38 16 -66 1
-36 -1 -46 -9 -35 -5 8 -10 11 -10 7 0 -4 -6 -2 -14 5 -10 9 -11 15 -2 21 8 5
8 9 0 15 -18 12 -25 44 -13 58 9 11 9 17 0 28 -6 8 -10 19 -9 26 2 6 -13 17
-32 23 -26 9 -36 18 -38 37 -2 14 -6 32 -9 40 -5 13 -5 51 1 57 1 1 20 -4 41
-12 22 -8 52 -14 68 -15 26 0 27 1 27 58 0 71 -10 132 -21 132 -5 0 -6 -7 -2
-15 3 -9 -2 -22 -13 -30 -18 -13 -18 -14 -2 -20 10 -4 17 -17 17 -28 0 -12 2
-37 6 -54 7 -37 0 -40 -34 -17 -18 13 -20 18 -10 25 10 7 11 11 3 17 -6 4 -10
23 -9 42 2 19 -1 40 -6 46 -5 7 -8 17 -7 23 2 6 -13 18 -32 28 -28 14 -36 25
-38 51 -2 17 -8 32 -13 32 -5 0 -4 10 3 23 7 12 13 23 13 24 1 1 19 -4 40 -12
22 -8 51 -14 65 -15 l25 0 -3 95 c-3 98 -6 102 -46 86 -15 -6 -16 -10 -7 -16
8 -4 17 -2 22 6 7 11 9 11 9 -3 0 -9 -6 -18 -12 -21 -10 -3 -9 -9 3 -23 10
-12 16 -39 16 -69 1 -27 -1 -44 -4 -37 -3 6 -8 10 -13 7 -4 -3 -13 2 -20 10
-8 10 -9 15 -2 15 7 0 7 8 -2 24 -7 13 -12 47 -11 74 1 49 0 51 -32 57 -35 6
-43 15 -52 56 -5 23 -8 25 -20 12z m9 -303 c0 -5 -2 -10 -4 -10 -3 0 -8 5 -11
10 -3 6 -1 10 4 10 6 0 11 -4 11 -10z"/>
<path d="M5730 1855 c-7 -9 -8 -15 -2 -15 5 0 12 7 16 15 3 8 4 15 2 15 -2 0
-9 -7 -16 -15z"/>
<path d="M3770 1857 c0 -14 331 -113 475 -142 44 -9 90 -18 103 -21 12 -2 22
-1 22 4 0 5 -51 19 -112 32 -62 13 -167 39 -233 58 -66 19 -142 41 -169 48
-28 8 -58 16 -68 20 -10 3 -18 3 -18 1z"/>
<path d="M620 1721 c0 -28 5 -53 10 -56 6 -4 10 15 10 49 0 31 -4 56 -10 56
-5 0 -10 -22 -10 -49z"/>
<path d="M781 1748 c0 -13 5 -32 10 -43 7 -15 8 -12 3 13 -3 19 -1 32 5 32 5
0 12 -28 14 -62 l3 -63 2 66 c2 53 -1 68 -14 73 -23 9 -24 8 -23 -16z"/>
<path d="M1592 1725 c-31 -14 -33 -17 -26 -52 4 -21 8 -39 9 -41 1 -1 17 4 36
10 31 12 34 17 35 56 1 46 -4 49 -54 27z"/>
<path d="M470 1720 c0 -5 5 -10 11 -10 5 0 7 5 4 10 -3 6 -8 10 -11 10 -2 0
-4 -4 -4 -10z"/>
<path d="M1161 1668 c-7 -17 -4 -33 13 -62 11 -22 27 -41 33 -44 20 -6 28 27
10 41 -9 7 -17 27 -19 46 -4 41 -24 52 -37 19z"/>
<path d="M792 1625 c-2 -79 7 -133 24 -139 11 -4 14 8 14 54 0 48 -3 58 -14
54 -11 -4 -16 6 -19 43 -3 46 -3 46 -5 -12z"/>
<path d="M4158 1523 c7 -3 16 -2 19 1 4 3 -2 6 -13 5 -11 0 -14 -3 -6 -6z"/>
<path d="M4195 1516 c22 -11 165 -33 165 -26 0 4 -19 10 -42 13 -96 13 -132
17 -123 13z"/>
<path d="M5418 1503 c6 -2 18 -2 25 0 6 3 1 5 -13 5 -14 0 -19 -2 -12 -5z"/>
<path d="M480 1470 c0 -5 7 -10 16 -10 8 0 12 5 9 10 -3 6 -10 10 -16 10 -5 0
-9 -4 -9 -10z"/>
<path d="M641 1408 c-1 -33 3 -58 9 -58 12 0 12 67 0 95 -6 14 -9 4 -9 -37z"/>
<path d="M4943 1436 l-28 -24 -2 -164 -1 -163 8 154 c8 159 17 192 54 209 11
6 16 11 9 11 -7 1 -25 -10 -40 -23z"/>
<path d="M802 1377 l2 -72 3 63 c2 36 8 60 13 57 6 -4 10 -2 10 3 0 6 -7 12
-15 16 -13 4 -15 -6 -13 -67z"/>
<path d="M3630 1440 c8 -5 20 -10 25 -10 6 0 3 5 -5 10 -8 5 -19 10 -25 10 -5
0 -3 -5 5 -10z"/>
<path d="M5572 1420 c79 -50 122 -122 138 -234 l9 -61 -3 61 c-6 102 -69 208
-148 250 -47 25 -45 15 4 -16z"/>
<path d="M5252 1405 c-83 -42 -157 -117 -199 -203 -25 -51 -28 -68 -28 -157 0
-92 2 -104 29 -153 16 -28 45 -64 64 -79 51 -38 143 -69 126 -42 -4 8 1 9 17
4 26 -8 26 -8 53 -6 11 0 16 4 13 8 -4 3 -2 12 4 20 15 17 -6 44 -29 37 -15
-5 -15 -4 1 6 21 14 22 30 2 30 -9 0 -28 12 -43 26 -33 32 -63 44 -107 44 -27
0 -37 6 -55 35 l-22 36 27 39 c26 38 35 66 38 125 1 17 9 35 17 42 8 6 15 15
15 20 3 50 56 114 149 175 61 41 16 37 -72 -7z"/>
<path d="M1613 1417 c-44 -16 -46 -20 -38 -65 l6 -40 37 15 c35 13 37 17 37
59 0 24 -2 44 -5 43 -3 0 -19 -6 -37 -12z"/>
<path d="M3700 1415 c0 -7 178 -61 310 -94 152 -37 340 -71 340 -61 0 4 -49
15 -109 24 -115 18 -375 81 -475 116 -64 22 -66 22 -66 15z"/>
<path d="M485 1400 c4 -6 11 -8 16 -5 14 9 11 15 -7 15 -8 0 -12 -5 -9 -10z"/>
<path d="M832 1327 c-1 -36 -6 -56 -12 -52 -6 4 -10 -13 -10 -45 0 -36 4 -52
15 -57 9 -3 17 -4 18 -2 1 2 0 51 -4 109 -3 68 -6 84 -7 47z"/>
<path d="M1174 1356 c-13 -35 22 -106 52 -106 7 0 12 13 11 36 -1 20 -3 32 -5
25 -8 -23 -19 -10 -18 21 0 24 -4 34 -17 36 -9 2 -20 -4 -23 -12z"/>
<path d="M5375 1235 c-28 -27 -30 -37 -15 -66 13 -24 49 -25 56 -1 3 9 12 30
20 45 8 16 12 33 8 38 -10 17 -45 9 -69 -16z"/>
<path d="M3875 1240 c11 -5 27 -9 35 -9 9 0 8 4 -5 9 -11 5 -27 9 -35 9 -9 0
-8 -4 5 -9z"/>
<path d="M3930 1226 c0 -9 370 -85 418 -86 1 0 2 4 2 9 0 4 -30 11 -67 15 -38
4 -129 20 -203 36 -140 31 -150 33 -150 26z"/>
<path d="M5227 1199 c-22 -25 -16 -49 11 -49 27 0 45 25 37 50 -8 26 -26 26
-48 -1z"/>
<path d="M3450 1186 c0 -4 6 -14 14 -22 17 -16 141 -20 131 -4 -3 6 1 10 10
10 9 0 13 -4 10 -10 -4 -6 6 -10 22 -9 25 0 26 1 8 9 -17 7 -14 9 13 9 18 1
40 -6 48 -14 18 -17 34 -20 34 -5 0 6 -5 10 -11 10 -5 0 -7 5 -4 10 4 6 -16
10 -52 10 -32 0 -95 3 -140 7 -46 3 -83 3 -83 -1z"/>
<path d="M658 1103 c6 -65 10 -70 11 -15 0 28 -3 52 -7 52 -4 0 -6 -17 -4 -37z"/>
<path d="M811 1113 c0 -11 3 -13 6 -5 11 29 22 8 26 -50 l3 -63 2 68 c2 61 0
67 -18 67 -13 0 -20 -6 -19 -17z"/>
<path d="M3975 1120 c22 -6 47 -13 55 -17 8 -3 20 -5 27 -4 6 1 14 -3 18 -9 3
-5 14 -10 25 -10 10 0 38 -22 63 -50 42 -46 48 -50 92 -50 27 0 44 -4 40 -10
-3 -5 10 -25 30 -43 41 -39 40 -41 -45 -62 l-45 -12 40 -7 c22 -4 48 -11 58
-17 10 -5 22 -7 27 -4 6 4 16 3 23 -2 6 -4 20 -9 30 -10 15 -3 16 0 7 16 -5
11 -15 23 -21 27 -24 14 -49 90 -49 149 l0 60 -148 24 c-81 13 -156 25 -167
27 -11 2 -38 6 -60 9 l-40 5 40 -10z"/>
<path d="M3393 1092 c-11 -20 -25 -30 -37 -29 -10 1 -21 -4 -24 -12 -4 -11 2
-13 26 -8 17 4 34 2 37 -3 4 -6 -7 -10 -24 -10 -35 0 -39 -10 -13 -33 26 -24
88 -22 102 2 13 26 13 29 -7 34 -15 4 -14 5 3 6 20 1 44 19 44 33 0 4 -11 3
-24 -2 -20 -7 -26 -6 -31 10 -3 10 -12 24 -20 30 -12 10 -18 7 -32 -18z"/>
<path d="M1606 1098 c-25 -9 -27 -14 -22 -40 3 -17 6 -36 6 -44 0 -10 8 -9 38
4 35 15 37 18 34 54 -4 40 -10 43 -56 26z"/>
<path d="M505 1090 c4 -6 11 -8 16 -5 14 9 11 15 -7 15 -8 0 -12 -5 -9 -10z"/>
<path d="M3028 1053 c17 -2 47 -2 65 0 17 2 3 4 -33 4 -36 0 -50 -2 -32 -4z"/>
<path d="M822 989 c-2 -83 6 -129 24 -129 10 0 14 14 14 50 0 37 -4 50 -14 50
-11 0 -16 14 -19 48 -3 40 -4 37 -5 -19z"/>
<path d="M1185 1039 c-10 -15 2 -52 26 -83 17 -21 24 -24 35 -15 11 9 11 15 3
25 -6 7 -7 19 -3 25 4 7 3 9 -4 5 -12 -7 -26 29 -17 44 3 5 -3 10 -14 10 -11
0 -23 -5 -26 -11z"/>
<path d="M2019 1014 c-18 -22 -147 -67 -174 -60 -25 6 -25 6 -25 -59 0 -74 8
-79 73 -46 27 14 37 15 37 6 0 -7 -14 -18 -30 -25 -48 -20 -29 -22 23 -3 41
15 44 19 35 36 -8 16 -7 19 5 14 15 -6 18 15 4 29 -11 11 -8 52 3 59 16 10 24
-23 10 -40 -7 -8 -10 -15 -7 -15 16 0 104 53 114 69 10 15 6 20 -23 33 -28 13
-36 13 -45 2z m-64 -114 c3 -5 1 -10 -4 -10 -6 0 -11 5 -11 10 0 6 2 10 4 10
3 0 8 -4 11 -10z"/>
<path d="M4903 950 c0 -41 2 -58 4 -37 2 20 2 54 0 75 -2 20 -4 3 -4 -38z"/>
<path d="M3038 1003 c7 -3 16 -2 19 1 4 3 -2 6 -13 5 -11 0 -14 -3 -6 -6z"/>
<path d="M2230 950 c-8 -5 -10 -10 -5 -10 6 0 17 5 25 10 8 5 11 10 5 10 -5 0
-17 -5 -25 -10z"/>
<path d="M3416 943 c-6 -14 -5 -15 5 -6 7 7 10 15 7 18 -3 3 -9 -2 -12 -12z"/>
<path d="M1661 928 c-24 -11 -45 -27 -48 -36 -3 -11 -34 -26 -91 -44 l-87 -27
4 -88 c2 -48 7 -79 10 -68 5 17 14 21 49 19 23 0 42 2 42 5 0 4 9 7 21 7 17 0
20 -5 15 -29 -4 -17 -2 -26 4 -22 6 3 10 16 11 28 0 12 4 31 9 42 8 16 9 12 9
-20 -1 -22 -1 -49 0 -59 1 -20 1 -20 16 0 9 12 14 42 15 82 0 34 4 62 10 62 6
0 10 -7 10 -16 0 -8 5 -12 10 -9 6 3 10 15 10 26 0 10 5 19 10 19 6 0 10 -5
10 -12 0 -8 3 -9 10 -2 6 6 7 40 2 86 l-7 76 -44 -20z"/>
<path d="M1740 880 c0 -58 3 -70 16 -70 14 0 16 8 10 46 -3 26 -6 57 -6 70 0
13 -4 24 -10 24 -6 0 -10 -30 -10 -70z"/>
<path d="M1781 908 c1 -74 17 -92 18 -20 1 35 -3 62 -9 62 -5 0 -10 -19 -9
-42z"/>
<path d="M2180 930 c-8 -5 -10 -10 -5 -10 6 0 17 5 25 10 8 5 11 10 5 10 -5 0
-17 -5 -25 -10z"/>
<path d="M2245 913 c-42 -6 -143 -39 -260 -86 -55 -22 -127 -48 -160 -59 l-60
-18 60 6 c98 9 185 33 242 65 29 17 73 33 96 36 23 2 61 15 85 29 39 23 53 36
35 33 -5 -1 -21 -4 -38 -6z"/>
<path d="M3740 899 c0 -5 5 -7 10 -4 6 3 10 8 10 11 0 2 -4 4 -10 4 -5 0 -10
-5 -10 -11z"/>
<path d="M1025 875 l-30 -14 30 6 c17 3 39 10 50 14 l20 8 -20 0 c-11 0 -33
-6 -50 -14z"/>
<path d="M4190 819 c0 -5 5 -7 10 -4 6 3 10 2 10 -4 0 -6 8 -7 17 -4 15 6 15
7 -3 14 -27 11 -34 10 -34 -2z"/>
<path d="M3153 813 c9 -2 23 -2 30 0 6 3 -1 5 -18 5 -16 0 -22 -2 -12 -5z"/>
<path d="M3238 813 c23 -2 59 -2 80 0 20 2 1 4 -43 4 -44 0 -61 -2 -37 -4z"/>
<path d="M3162 773 c-2 -23 12 -31 23 -13 3 6 51 10 108 10 77 0 98 3 89 12
-7 7 -51 12 -115 13 -101 2 -103 1 -105 -22z"/>
<path d="M3180 711 c0 -11 14 -31 32 -46 l32 -27 18 22 c16 20 16 23 2 46 -21
31 -84 35 -84 5z"/>
<path d="M5515 620 c-27 -4 -178 -25 -334 -46 -156 -21 -278 -40 -273 -42 19
-6 701 84 711 94 6 6 -47 3 -104 -6z"/>
<path d="M1850 540 c-8 -5 -10 -10 -5 -10 6 0 17 5 25 10 8 5 11 10 5 10 -5 0
-17 -5 -25 -10z"/>
</g>
</svg>
