<?xml version="1.0" standalone="no"?>
<!DOCTYPE svg PUBLIC "-//W3C//DTD SVG 20010904//EN"
 "http://www.w3.org/TR/2001/REC-SVG-20010904/DTD/svg10.dtd">
<svg version="1.0" xmlns="http://www.w3.org/2000/svg"
 width="375.000000pt" height="500.000000pt" viewBox="0 0 375.000000 500.000000"
 preserveAspectRatio="xMidYMid meet">

<g transform="translate(0.000000,500.000000) scale(0.100000,-0.100000)"
fill="#000000" stroke="none">
<path d="M346 4917 c23 -45 55 -118 69 -162 40 -120 41 -117 18 65 -3 25 -3
42 1 39 3 -3 10 -41 16 -85 15 -108 18 -115 43 -111 37 5 47 17 47 58 0 23 5
41 13 43 26 6 163 49 189 58 32 12 35 18 44 107 l7 71 -245 0 -245 -1 43 -82z"/>
<path d="M812 4928 c0 -40 2 -76 4 -80 3 -4 18 -2 33 3 33 12 51 50 51 110 l0
39 -44 0 -43 0 -1 -72z"/>
<path d="M941 4940 c2 -48 5 -60 16 -55 8 3 20 5 27 5 15 0 17 19 10 73 -5 31
-10 37 -30 37 -24 0 -25 -2 -23 -60z"/>
<path d="M1040 4971 c0 -60 11 -89 36 -94 28 -5 30 9 13 79 -8 32 -16 44 -30
44 -14 0 -19 -7 -19 -29z"/>
<path d="M1130 4985 c0 -18 26 -20 34 -2 3 6 4 -9 2 -36 -3 -38 -1 -45 9 -37
7 6 16 27 20 46 5 27 9 33 19 25 7 -6 11 -23 8 -41 -5 -33 2 -37 24 -16 7 8
19 17 26 20 10 5 10 7 1 12 -7 3 -13 14 -13 25 0 17 -8 19 -65 19 -51 0 -65
-3 -65 -15z"/>
<path d="M1607 4957 c-4 -26 -5 -68 -2 -94 3 -35 2 -40 -3 -18 -6 23 -10 5
-20 -80 -7 -60 -12 -140 -12 -177 0 -54 -3 -69 -17 -76 -18 -9 -117 -23 -198
-28 -22 -1 -45 -2 -51 -3 -13 -1 -24 -81 -12 -81 5 0 8 -48 8 -106 0 -115 -5
-107 58 -89 12 4 20 11 16 16 -3 6 -1 15 4 22 6 7 13 34 18 62 10 67 30 112
53 120 11 3 41 5 67 3 55 -4 55 -4 79 -132 12 -66 13 -91 5 -96 -7 -4 -78 -15
-158 -25 -81 -9 -150 -19 -154 -21 -5 -3 -8 -16 -8 -30 0 -15 -6 -24 -15 -24
-8 0 -15 -3 -15 -6 0 -3 7 -12 15 -20 13 -14 15 -13 15 5 0 31 27 25 35 -7 7
-35 4 -141 -5 -147 -3 -2 -51 12 -106 31 -54 19 -114 40 -132 46 -22 8 -31 16
-27 26 4 12 -1 13 -27 7 -37 -9 -134 -17 -218 -19 -30 0 -61 -7 -69 -14 -7 -7
-34 -13 -60 -13 -25 0 -69 -2 -97 -5 l-52 -6 4 -36 c28 -264 30 -436 8 -547
-24 -119 -24 -120 12 -123 31 -3 31 -2 43 55 17 85 67 234 77 231 11 -4 12
-110 1 -163 -5 -22 -12 -59 -16 -82 l-8 -43 41 0 c38 0 43 3 54 33 19 53 26
211 12 262 -7 25 -16 45 -20 45 -3 0 -12 -17 -18 -37 l-11 -38 5 49 c4 33 2
46 -5 41 -6 -3 -11 -15 -11 -26 0 -10 -4 -19 -9 -19 -11 0 -21 25 -21 50 0 13
-5 17 -20 13 -21 -6 -29 20 -10 32 6 3 10 17 10 31 0 33 20 30 21 -3 l1 -28
11 32 c22 58 32 54 27 -9 -2 -33 17 -38 23 -5 3 18 5 16 6 -7 0 -17 9 -39 20
-50 21 -24 41 -78 41 -112 0 -13 3 -24 8 -24 13 0 0 94 -15 112 -9 10 -24 48
-34 85 -15 52 -16 69 -6 75 8 5 18 -11 32 -57 11 -35 24 -67 29 -72 8 -7 6 6
-5 42 -1 6 1 35 6 65 6 42 10 50 16 35 4 -11 8 -31 8 -45 2 -50 22 -101 38
-98 25 5 51 58 53 108 l2 45 9 -45 c5 -25 7 -56 3 -70 -3 -14 -3 -22 1 -18 11
11 34 128 36 178 l1 45 10 -35 c11 -37 6 -163 -6 -192 -6 -13 -4 -18 8 -18 21
0 20 -9 -3 -44 -14 -21 -17 -35 -11 -57 9 -31 -6 -42 -17 -13 -4 12 -8 13 -14
3 -10 -16 7 -49 26 -49 26 0 76 35 81 58 8 28 24 29 24 1 0 -19 1 -19 17 -4
15 15 17 15 25 1 5 -9 7 -20 3 -25 -3 -5 -1 -12 5 -16 5 -3 10 3 10 15 0 26
18 17 30 -16 11 -28 65 -64 97 -64 12 0 24 -8 26 -17 3 -12 5 -9 5 7 1 25 -16
75 -17 53 -1 -19 -56 -16 -79 5 -18 16 -19 26 -13 132 6 114 6 115 32 118 l26
3 -4 -112 c-2 -61 -6 -116 -10 -122 -3 -5 -1 -7 5 -3 17 10 30 65 36 155 4 55
10 87 20 95 18 14 33 90 45 220 7 83 12 103 30 117 38 31 182 52 196 28 4 -5
25 -9 48 -7 40 3 42 2 69 -47 16 -27 26 -58 24 -67 -5 -23 27 -24 68 -3 15 8
45 15 65 14 l36 -1 -30 -9 c-16 -5 -61 -15 -99 -24 -38 -9 -76 -20 -85 -24 -9
-5 -34 -12 -56 -15 -103 -17 -206 -91 -274 -198 -36 -57 -43 -79 -43 -136 1
-54 35 -252 56 -327 l15 -50 -5 55 c-3 30 -10 68 -15 84 -20 65 -13 80 46 105
86 36 143 106 229 285 98 202 118 220 166 149 43 -63 153 -150 215 -169 55
-18 55 -18 49 -50 -5 -30 -2 -35 27 -53 44 -27 59 -26 60 2 1 19 2 20 6 2 10
-37 35 -65 67 -73 25 -7 32 -14 34 -38 1 -16 8 -39 13 -50 6 -12 12 -64 13
-115 l1 -94 50 -1 50 -2 3 83 c2 45 -2 102 -8 125 -14 51 -8 61 16 25 12 -19
18 -51 20 -105 3 -92 11 -112 58 -134 55 -26 66 -22 60 22 -3 21 -2 32 3 26 4
-6 16 -8 26 -5 15 5 13 9 -12 24 -28 16 -51 64 -51 105 0 7 -7 23 -15 35 -16
26 -14 72 5 90 10 9 11 9 6 0 -10 -18 9 -16 24 2 7 8 21 15 31 15 11 0 19 5
19 11 0 15 26 39 34 32 3 -4 6 -23 6 -43 0 -59 43 -86 84 -55 26 19 80 19 110
0 21 -14 24 -14 29 0 4 8 3 15 -1 15 -14 0 -31 38 -25 59 4 17 9 19 25 10 11
-6 26 -8 35 -5 11 5 3 17 -32 52 l-46 46 7 102 c3 55 12 128 18 161 l12 60 61
-1 61 -1 6 56 c12 107 45 247 80 345 21 56 36 118 37 145 0 35 2 41 9 26 9
-20 9 -20 9 1 1 11 -3 24 -9 30 -14 14 0 84 16 84 8 0 13 6 11 12 -1 7 8 14
21 16 24 4 62 62 40 62 -7 0 -6 5 4 13 14 10 78 173 78 198 0 5 -24 9 -54 9
-54 0 -54 0 -70 -40 -21 -52 -20 -66 4 -90 27 -27 18 -66 -17 -73 l-25 -5 7
104 7 104 -46 0 -46 0 -2 -52 c-4 -100 -5 -113 -12 -146 -5 -18 -12 -29 -18
-26 -7 4 -9 46 -6 115 l4 109 -28 0 -28 0 0 -101 c0 -119 -8 -139 -55 -139
l-34 0 4 48 c6 70 -5 142 -21 142 -8 0 -14 10 -14 25 l0 25 -158 0 -158 0 -10
-131 c-7 -95 -14 -133 -24 -139 -10 -7 -11 -10 -2 -10 8 0 12 -19 12 -60 0
-46 4 -61 17 -69 10 -5 14 -13 10 -17 -5 -5 -12 -2 -18 6 -7 12 -10 11 -15 -8
-4 -12 -16 -24 -28 -27 -85 -18 -185 -35 -192 -34 -5 2 -34 -2 -64 -9 -184
-38 -329 -62 -344 -56 -9 3 -16 2 -16 -3 0 -9 -119 -33 -161 -33 -20 0 -21 4
-15 58 4 42 2 62 -9 76 -28 37 -14 96 23 96 11 0 13 -15 10 -64 l-3 -64 42 3
c24 2 51 6 62 10 18 5 18 8 4 45 -19 47 -12 81 20 96 23 10 24 10 19 -36 -2
-28 2 -63 12 -90 l16 -45 -6 45 c-3 25 -7 65 -8 90 -2 25 -6 52 -9 60 -3 8 -8
23 -11 34 -4 12 -12 16 -24 11 -9 -4 -41 -9 -71 -12 l-54 -6 6 96 c3 54 2 97
-2 97 -4 0 -5 15 -3 34 6 54 -4 66 -11 13z m1530 -29 c-3 -8 -6 -5 -6 6 -1 11
2 17 5 13 3 -3 4 -12 1 -19z m-1540 -200 c-2 -13 -4 -5 -4 17 -1 22 1 32 4 23
2 -10 2 -28 0 -40z m1365 -75 c2 -5 -1 -33 -8 -63 l-12 -55 -1 63 c-1 34 3 62
8 62 6 0 11 -3 13 -7z m-82 -90 c0 -49 5 -105 9 -127 14 -58 7 -66 -55 -66
-58 0 -70 13 -29 32 16 7 25 19 25 34 0 12 5 24 11 26 7 2 7 12 0 31 -6 16
-11 55 -11 87 0 58 3 63 43 69 4 0 7 -38 7 -86z m-1177 60 c-7 -2 -21 -2 -30
0 -10 3 -4 5 12 5 17 0 24 -2 18 -5z m-10 -266 c9 -8 22 -28 28 -46 6 -17 17
-31 25 -31 11 0 12 -4 4 -19 -5 -11 -10 -26 -9 -33 0 -10 2 -10 6 0 8 21 62
44 80 34 13 -8 10 -9 -12 -9 -34 0 -57 -28 -53 -63 4 -36 40 -39 62 -5 10 15
15 33 12 41 -3 9 -1 12 4 9 6 -3 10 3 10 14 0 11 -5 23 -11 27 -8 4 -7 9 2 15
23 14 29 -1 29 -72 0 -67 -1 -70 -27 -80 -16 -6 -50 -11 -77 -12 -27 0 -43 -3
-35 -5 8 -3 16 -8 19 -12 6 -9 76 -42 110 -51 20 -5 17 -7 -16 -8 -23 0 -57
-7 -76 -15 l-34 -15 -14 37 c-15 41 -18 59 -19 115 -1 30 -5 37 -20 37 -20 0
-24 13 -45 136 -8 49 5 51 57 11z m796 -29 c-3 -86 -12 -102 -65 -116 -53 -14
-144 -16 -144 -2 0 5 -15 1 -33 -10 -37 -22 -153 -35 -163 -18 -4 6 -9 6 -13
1 -10 -15 -85 -33 -135 -33 l-46 0 0 43 c0 78 10 115 30 110 12 -3 16 -12 12
-31 l-4 -27 17 23 c9 12 23 22 31 22 10 0 8 -6 -7 -21 -13 -13 -19 -30 -17
-47 2 -23 8 -27 33 -27 24 0 31 5 38 30 5 17 13 37 17 46 4 8 4 23 -2 32 -7
14 -5 17 12 17 17 0 20 -6 20 -42 0 -32 3 -39 10 -28 5 8 10 30 10 48 0 26 4
32 21 32 18 0 20 -4 15 -25 l-7 -26 21 21 c26 26 85 27 95 3 5 -15 4 -16 -6
-5 -21 20 -57 14 -75 -13 -25 -39 1 -84 41 -69 20 8 52 66 62 111 8 37 8 37
13 -22 l5 -60 10 55 c9 48 13 55 35 58 23 2 24 1 7 -11 -13 -11 -15 -20 -8
-38 5 -13 10 -18 10 -10 1 21 31 51 50 50 12 0 10 -3 -6 -11 -11 -6 -23 -22
-26 -36 -11 -57 34 -82 72 -41 25 27 38 98 21 109 -9 6 -8 9 6 13 44 11 46 9
43 -55z m-59 12 c10 -19 10 -20 -9 -8 -22 13 -28 28 -11 28 5 0 14 -9 20 -20z
m-400 -61 c0 -4 -7 -6 -15 -3 -8 4 -15 10 -15 15 0 4 7 6 15 3 8 -4 15 -10 15
-15z m877 -106 c3 -39 3 -82 0 -95 -6 -23 -11 -24 -80 -26 -40 0 -88 -4 -107
-7 -56 -10 -151 -62 -209 -116 -30 -27 -56 -48 -58 -45 -2 2 2 35 9 72 l13 69
3 -47 c2 -27 6 -48 10 -48 4 1 36 23 72 51 48 37 87 56 150 76 l85 26 3 76 c2
42 6 78 8 80 8 8 79 17 87 11 4 -4 11 -39 14 -77z m-939 -183 c20 -10 58 -39
83 -62 44 -41 109 -123 109 -138 0 -3 -37 30 -82 75 -46 44 -101 95 -123 112
-46 37 -41 42 13 13z m146 -62 c34 -22 96 -114 96 -140 0 -7 -11 4 -24 25 -30
49 -73 94 -111 118 -21 13 -25 19 -12 19 9 0 33 -10 51 -22z m-162 -2 c17 -16
54 -134 45 -142 -13 -13 -52 11 -118 73 -38 36 -69 69 -69 74 0 15 127 11 142
-5z m-680 -28 c-7 -7 -12 -8 -12 -2 0 14 12 26 19 19 2 -3 -1 -11 -7 -17z
m368 8 c0 -22 -167 -330 -192 -355 -36 -36 -126 -86 -136 -76 -4 3 -8 37 -10
76 -4 59 -1 77 22 123 31 64 93 136 143 167 61 38 173 80 173 65z m-534 -46
c-1 -16 1 -55 5 -87 4 -32 2 -88 -3 -125 -9 -55 -14 -68 -29 -68 -20 0 -29 26
-18 56 4 12 10 70 14 130 4 60 8 115 11 122 7 24 22 3 20 -28z m1317 -25 c-3
-9 -8 -14 -10 -11 -3 3 -2 9 2 15 9 16 15 13 8 -4z m64 -72 c-7 -70 -56 -193
-78 -193 -7 0 -8 7 -4 18 24 55 35 98 41 149 6 50 25 93 42 93 3 0 2 -30 -1
-67z m-167 -125 c0 -6 -6 -5 -15 2 -8 7 -15 14 -15 16 0 2 7 1 15 -2 8 -4 15
-11 15 -16z m-1280 -62 c0 -3 -5 -17 -11 -33 l-12 -28 -7 25 c-3 14 -2 28 4
32 12 9 26 10 26 4z m90 -12 c0 -8 -4 -12 -10 -9 -5 3 -10 10 -10 16 0 5 5 9
10 9 6 0 10 -7 10 -16z"/>
<path d="M1630 4985 c0 -8 6 -15 14 -15 8 0 16 7 20 15 4 10 -1 15 -14 15 -11
0 -20 -7 -20 -15z"/>
<path d="M3221 4903 c-18 -53 -61 -172 -96 -264 -70 -183 -120 -340 -135 -428
-5 -31 -17 -99 -26 -151 -14 -81 -15 -145 -10 -430 7 -416 17 -679 25 -657 3
9 6 -35 6 -98 0 -62 -3 -116 -6 -120 -4 -3 -15 49 -25 117 -18 120 -19 122
-29 83 -10 -35 -16 -40 -50 -47 -21 -5 -54 -6 -74 -4 -20 3 -40 5 -44 5 -10 1
-3 55 24 171 15 63 34 109 79 185 l59 101 -6 147 c-3 81 -9 147 -13 147 -10 0
-60 -127 -116 -298 -34 -102 -51 -141 -61 -138 -8 4 -13 -3 -13 -18 0 -13 -7
-43 -15 -67 -27 -77 -26 -76 -36 -51 -14 36 -27 26 -34 -25 -14 -111 -15 -115
-30 -103 -11 9 -18 8 -31 -5 -11 -10 -25 -14 -39 -11 -17 4 -32 -2 -54 -23
-17 -16 -31 -25 -31 -20 0 5 -7 9 -15 9 -10 0 -15 -11 -16 -32 0 -18 -3 -55
-5 -81 -4 -37 -1 -53 12 -68 10 -11 12 -19 6 -19 -7 0 -12 -6 -12 -14 0 -8 -4
-16 -9 -18 -11 -4 -19 -158 -9 -158 5 0 8 -9 8 -20 0 -11 6 -20 13 -20 8 0 22
-9 31 -19 17 -19 17 -20 -10 -23 -15 -2 -29 -8 -31 -14 -2 -7 9 -9 29 -6 27 4
31 2 20 -9 -6 -7 -12 -28 -12 -46 0 -45 -19 -82 -47 -89 -13 -4 -23 -10 -23
-16 0 -5 -4 -6 -10 -3 -5 3 -10 1 -10 -6 0 -9 -16 -10 -58 -6 l-59 6 -18 -114
c-15 -93 -16 -116 -6 -129 9 -10 11 -28 7 -51 -7 -34 14 -135 21 -104 2 9 15
21 29 28 31 14 37 14 29 1 -3 -5 -1 -19 5 -30 10 -18 13 -19 26 -5 29 29 50
11 39 -33 -4 -15 -10 -21 -12 -14 -5 14 -32 16 -53 2 -12 -7 -12 -12 4 -29 10
-11 23 -18 27 -15 5 3 9 -2 9 -10 0 -29 18 -17 30 20 7 19 14 33 16 31 9 -8
-28 -87 -41 -87 -42 0 -144 115 -148 168 -1 18 -3 17 -41 -3 -64 -35 -127 -48
-216 -43 l-81 3 27 -22 c23 -18 37 -21 98 -18 64 4 142 20 189 40 14 6 21 -2
40 -43 15 -35 31 -55 50 -63 15 -6 27 -14 27 -18 0 -13 -58 -29 -71 -20 -8 5
-41 8 -74 7 l-60 -1 57 -6 c57 -6 91 -21 48 -21 -22 0 -23 -1 -8 -16 9 -9 31
-19 49 -23 32 -6 54 -31 27 -31 -18 0 -274 127 -325 162 -23 15 -44 28 -47 28
-3 0 -30 17 -58 37 -57 39 -84 62 -58 48 8 -5 11 -4 7 0 -4 5 -13 10 -20 11
-36 8 -92 34 -95 44 -7 19 -49 55 -132 110 -41 27 -106 74 -144 104 -37 30
-78 62 -90 71 -21 15 -21 15 0 10 20 -5 21 -2 16 72 -7 132 31 147 96 40 31
-52 88 -185 99 -234 3 -12 12 -24 20 -27 11 -5 13 0 8 17 -3 12 6 2 19 -23 14
-25 25 -37 26 -27 0 9 3 17 8 17 15 0 45 86 50 143 5 65 -7 138 -45 276 -19
68 -23 96 -15 99 7 2 12 14 12 28 0 22 2 23 48 18 56 -7 171 -22 226 -31 33
-5 38 -4 34 13 -3 16 -24 21 -177 40 -116 15 -176 26 -182 35 -7 11 -9 10 -9
-3 0 -10 -5 -18 -10 -18 -6 0 -10 6 -8 13 1 6 -3 22 -10 34 -7 12 -9 29 -6 38
6 14 8 14 20 -2 12 -16 13 -7 11 62 -2 74 -1 80 18 80 17 0 22 -11 32 -75 6
-41 12 -77 12 -79 1 -2 8 2 16 9 12 10 15 29 13 74 l-3 61 117 0 c64 0 114 3
112 6 -2 4 10 9 26 11 22 3 30 0 31 -11 1 -15 16 22 18 45 1 7 -62 15 -176 24
-98 7 -187 17 -198 23 -11 6 -36 12 -55 13 -19 1 -45 5 -58 9 -21 7 -22 5 -14
-16 18 -45 44 -141 39 -145 -5 -5 -67 176 -67 196 0 13 1 13 10 0 8 -11 9 -7
4 15 -9 39 -14 44 -14 14 0 -18 -3 -21 -9 -10 -7 10 -9 4 -8 -20 l2 -34 -44 2
c-24 1 -48 8 -52 15 -6 9 -9 4 -9 -13 0 -15 -7 -32 -15 -39 -9 -7 -15 -28 -14
-49 1 -32 2 -33 9 -11 5 16 9 -20 11 -98 3 -90 1 -122 -8 -122 -21 0 -26 -23
-8 -36 10 -7 22 -11 26 -8 16 9 30 -37 27 -89 l-3 -52 -50 -7 c-27 -3 -79 -8
-114 -11 l-64 -4 6 64 c5 61 4 64 -17 61 -18 -3 -21 -11 -24 -58 -3 -54 -19
-81 -34 -57 -6 9 -8 9 -8 0 0 -14 -34 -16 -93 -7 -36 6 -37 8 -37 49 0 25 5
45 13 48 8 3 12 -6 12 -26 0 -18 7 -34 18 -41 23 -14 43 10 58 69 6 22 12 47
15 57 4 13 -5 17 -51 20 -30 1 -56 0 -58 -3 -1 -4 -30 -2 -65 4 l-63 10 3 66
3 66 52 0 c29 -1 48 2 42 6 -8 5 -8 9 0 13 6 4 9 12 5 17 -4 6 -11 6 -20 -2
-24 -20 -30 16 -13 81 3 9 -9 18 -31 26 l-35 12 0 66 c0 82 -19 83 -23 1 -2
-46 -7 -61 -23 -73 -20 -14 -20 -14 -1 -36 19 -21 39 -92 23 -82 -5 3 -6 -32
-3 -79 5 -82 4 -85 -17 -85 -18 0 -87 10 -232 35 -20 3 -29 -2 -37 -18 l-11
-22 0 23 c-1 15 -7 22 -21 22 -11 0 -20 -5 -20 -12 0 -6 -23 -56 -51 -110 -33
-66 -48 -106 -45 -121 3 -12 3 -16 0 -8 -5 10 -10 6 -20 -15 l-12 -29 -1 45
c0 25 5 54 12 66 39 68 76 144 69 144 -16 0 -11 54 9 86 16 27 18 37 8 55 -9
17 -13 19 -20 8 -13 -21 -11 -32 6 -25 13 4 13 2 5 -14 -6 -10 -19 -25 -30
-33 -11 -7 -27 -33 -35 -57 -20 -55 -19 -60 5 -30 29 36 25 14 -16 -91 -35
-91 -36 -97 -31 -194 4 -95 36 -218 55 -212 4 1 18 -6 32 -16 20 -14 23 -20
13 -35 -6 -10 -9 -30 -6 -45 8 -39 -14 -34 -38 8 -12 19 -25 35 -31 35 -5 0
-7 4 -4 8 2 4 1 14 -5 22 -6 10 -9 -7 -9 -52 0 -37 -4 -69 -9 -72 -5 -4 -22
-1 -37 4 -15 6 -28 9 -31 7 -8 -9 41 -59 71 -72 19 -8 24 -14 14 -14 -10 -1
-18 -5 -18 -11 0 -5 13 -7 30 -4 36 8 39 -7 10 -51 -23 -35 -26 -75 -6 -75 16
0 29 27 20 42 -3 5 2 27 11 48 14 32 24 40 49 42 19 2 39 -3 51 -14 12 -10 26
-14 33 -9 9 6 3 15 -22 35 -20 15 -36 36 -36 47 0 26 6 24 50 -14 21 -18 60
-40 87 -50 50 -18 163 -24 163 -8 0 5 -34 26 -75 48 -41 21 -75 41 -75 45 0 4
9 12 20 18 16 8 31 6 68 -10 29 -12 40 -14 27 -5 -10 8 -34 21 -52 27 -18 7
-33 15 -33 19 0 14 51 19 92 9 58 -13 79 -12 53 2 -28 15 -75 60 -75 71 0 5
10 2 23 -7 63 -46 135 -92 161 -103 31 -14 50 -8 26 7 -12 8 -10 10 8 10 12 0
49 11 82 24 33 13 58 21 57 16 -1 -5 13 -20 31 -33 39 -29 29 -42 -26 -33 -25
5 -32 4 -23 -3 12 -8 12 -12 2 -25 -8 -9 -9 -16 -3 -16 6 0 12 5 14 10 3 9 20
14 75 19 7 0 10 7 8 14 -5 13 38 37 67 37 21 0 24 18 5 26 -17 6 -21 82 -7
120 7 16 18 83 26 148 7 66 17 122 20 125 3 3 5 -5 3 -19 -1 -14 1 -32 4 -40
4 -8 8 -35 9 -60 3 -39 6 -45 28 -48 14 -2 31 -9 38 -14 14 -12 17 -72 2 -63
-17 11 -11 -7 7 -21 10 -7 13 -14 7 -14 -7 0 -15 -12 -19 -27 -3 -16 -14 -36
-23 -46 -15 -16 -15 -17 1 -11 30 11 18 -5 -23 -32 -23 -15 -39 -32 -37 -39
10 -23 -22 -48 -63 -49 -41 -1 -60 -26 -19 -26 11 0 17 -5 14 -10 -3 -6 -1
-10 4 -10 6 0 11 7 11 15 0 13 7 15 34 10 20 -4 36 -2 40 4 4 6 21 11 37 11
22 0 32 6 39 25 7 19 17 25 39 25 16 0 33 5 36 10 4 6 -7 10 -27 10 -27 1 -30
2 -15 11 23 13 22 26 -3 34 -11 3 -20 10 -20 15 0 15 37 17 69 4 17 -7 38 -11
46 -8 8 4 24 -10 41 -35 15 -23 31 -41 35 -41 5 0 9 -8 9 -19 0 -10 6 -24 14
-30 19 -16 31 16 14 37 -12 13 -10 14 12 2 14 -7 32 -16 40 -20 8 -4 17 -15
18 -24 4 -17 2 -17 -22 0 -49 31 -38 7 18 -42 65 -56 76 -81 14 -31 -65 52
-72 54 -54 19 21 -40 21 -59 1 -42 -12 10 -15 10 -15 -4 0 -19 1 -19 -38 -5
l-31 11 26 23 27 22 -54 67 c-47 59 -70 78 -70 60 0 -3 16 -22 35 -42 33 -35
34 -38 18 -52 -10 -8 -24 -27 -30 -42 -11 -25 -18 -28 -62 -28 -27 0 -53 5
-56 10 -4 7 -54 9 -143 6 -129 -5 -193 3 -145 18 36 11 23 36 -18 36 -33 0
-37 -3 -35 -25 1 -19 10 -28 39 -40 20 -8 45 -15 55 -15 10 0 26 -6 37 -14 23
-15 77 -27 69 -15 -9 15 48 10 113 -11 33 -10 117 -30 185 -45 67 -14 153 -34
190 -45 59 -18 69 -25 84 -56 9 -19 15 -36 13 -39 -3 -2 -49 12 -104 30 -55
19 -135 44 -177 56 -45 12 -75 25 -72 31 4 6 -2 7 -16 3 -14 -4 -20 -3 -17 2
4 6 -27 19 -68 30 -41 11 -71 15 -68 10 6 -10 -40 -6 -114 8 -16 3 -22 2 -15
-1 19 -9 14 -27 -5 -19 -71 30 -220 57 -343 61 -134 5 -220 15 -251 28 -14 6
-17 2 -15 -20 2 -44 45 -56 133 -37 69 15 71 15 92 -6 11 -11 27 -21 34 -22
103 -4 172 -19 239 -54 75 -38 87 -42 150 -52 27 -4 38 -11 38 -22 0 -14 10
-17 48 -17 39 0 64 -9 139 -52 50 -29 94 -52 98 -52 10 0 -41 40 -52 40 -4 0
-19 9 -33 20 -29 23 -12 27 39 9 18 -6 34 -9 36 -7 5 5 -114 96 -165 127 -19
11 -46 21 -59 21 -20 0 -21 2 -11 15 17 21 35 19 89 -9 25 -14 80 -34 121 -45
41 -11 86 -24 100 -30 42 -17 -8 -14 -69 5 -29 8 -55 13 -58 11 -2 -3 40 -34
94 -69 95 -63 102 -66 218 -88 88 -16 125 -28 137 -42 10 -11 16 -24 13 -28
-7 -11 72 -73 83 -66 5 3 18 -1 28 -10 18 -14 18 -14 -5 -4 -19 10 -22 9 -19
-2 12 -37 232 -105 367 -114 29 -2 64 -10 77 -19 42 -27 116 -47 183 -48 88
-1 202 13 195 25 -4 6 -17 8 -30 5 -19 -3 -24 0 -24 16 0 17 5 19 40 13 38 -6
40 -5 40 19 0 24 -3 25 -57 25 -63 0 -223 27 -237 40 -15 15 40 22 80 11 22
-6 64 -11 94 -10 l55 0 -48 13 c-50 14 -76 31 -64 42 4 4 41 0 82 -9 87 -20
95 -20 95 -8 0 5 -21 12 -46 16 -84 12 -95 25 -20 22 81 -2 102 17 23 21 -28
2 -56 7 -60 11 -5 5 5 24 21 42 54 63 112 157 162 263 28 58 50 109 50 114 0
5 6 15 14 21 12 10 19 2 43 -40 36 -68 53 -75 42 -17 -24 130 -22 219 11 403
25 142 31 204 30 295 -3 181 2 206 15 80 7 -63 13 -131 14 -149 1 -25 4 -32
12 -24 7 7 8 33 4 74 -8 72 -6 85 13 83 6 -1 12 6 12 15 0 9 7 70 15 136 20
165 20 174 -5 168 -17 -5 -20 0 -20 31 0 29 -4 36 -19 36 -19 0 -20 6 -15 108
2 59 6 137 9 175 2 42 0 67 -6 67 -16 0 -7 232 9 238 9 3 12 35 12 115 0 76
-3 107 -10 97 -8 -13 -10 -13 -10 2 0 24 11 49 20 43 10 -6 17 24 25 105 l6
65 -22 -45 c-12 -25 -29 -60 -37 -78 -8 -18 -17 -31 -19 -28 -3 2 19 62 47
133 52 126 72 183 65 183 -2 0 -31 -57 -66 -127 -38 -78 -64 -121 -66 -111 -3
10 6 42 20 70 21 48 23 61 17 143 -3 50 -4 96 -2 103 3 7 23 12 53 12 49 0 50
0 69 46 21 48 27 114 10 114 -5 0 -13 -7 -18 -15 -8 -15 -112 -35 -112 -22 0
25 53 120 69 124 27 7 48 60 33 83 -15 24 13 96 39 103 16 4 19 -1 20 -36 1
-23 4 -33 6 -22 3 10 12 30 20 42 14 21 14 25 0 41 -8 9 -17 24 -18 32 -4 21
19 60 35 60 17 0 41 59 50 123 7 47 7 47 -22 47 -28 0 -30 -4 -61 -97z m-561
-2053 c0 -122 50 -250 226 -577 18 -35 29 -63 24 -63 -13 0 -44 49 -36 57 3 4
-6 19 -21 35 -15 15 -23 28 -19 28 4 0 -1 12 -12 28 -31 44 -107 193 -127 247
-10 28 -22 55 -26 60 -9 13 -29 153 -29 206 0 24 4 38 10 34 6 -3 10 -28 10
-55z m-1257 10 c-3 -12 1 -22 11 -26 9 -3 16 -10 16 -15 0 -5 11 -33 25 -63
39 -86 44 -83 -97 -65 -72 10 -88 15 -88 29 0 11 13 20 38 26 27 7 38 15 40
32 2 12 7 22 12 22 5 0 14 18 20 40 6 22 15 40 19 40 5 0 7 -9 4 -20z m1297
-50 c0 -25 9 -67 19 -95 10 -27 28 -77 40 -109 12 -33 29 -68 38 -78 9 -10 12
-18 8 -18 -5 0 -1 -6 8 -12 18 -14 34 -68 21 -68 -12 0 -59 82 -56 96 1 6 -5
17 -13 24 -8 7 -15 17 -15 22 0 5 -8 28 -19 51 -26 59 -59 210 -53 241 7 32
22 -4 22 -54z m305 -129 c3 -5 1 -12 -5 -16 -5 -3 -10 1 -10 9 0 18 6 21 15 7z
m-1529 -38 c8 -3 14 -11 14 -19 0 -8 4 -14 9 -14 22 0 73 -184 91 -324 9 -78
0 -154 -21 -167 -10 -6 -30 26 -80 131 -76 158 -102 190 -153 190 l-35 0 5 58
c3 31 7 81 10 111 l6 53 70 -6 c38 -4 76 -10 84 -13z m-873 -26 c4 3 7 -7 7
-23 0 -16 5 -36 10 -44 8 -12 10 -12 10 -1 0 11 3 11 15 1 21 -18 48 6 42 37
-2 13 0 23 4 23 5 0 10 -10 10 -22 1 -17 2 -19 6 -5 6 25 23 21 24 -5 l0 -23
9 23 c13 30 17 28 12 -7 -2 -16 1 -32 7 -35 6 -4 11 -13 11 -21 0 -11 -6 -12
-30 -4 -16 6 -30 16 -30 22 0 9 -2 9 -8 0 -5 -8 -20 -9 -52 -2 -64 14 -82 17
-105 18 -18 1 -17 3 5 14 19 10 24 20 23 41 -2 22 1 25 11 17 7 -6 16 -8 19
-4z m2195 -10 c7 -8 7 -18 2 -27 -10 -17 -15 -13 -24 18 -8 24 5 30 22 9z
m-2284 -23 c10 -25 7 -34 -9 -28 -8 4 -15 15 -15 25 0 23 16 25 24 3z m314
-31 c-2 -37 -7 -48 -19 -47 -14 1 -16 -7 -11 -55 3 -31 6 -72 6 -93 1 -20 4
-34 9 -31 15 9 6 -9 -22 -45 -48 -61 -72 -114 -65 -144 3 -16 1 -28 -4 -28
-40 0 -68 139 -39 193 l15 28 16 -23 c9 -13 20 -22 24 -20 4 1 8 -2 8 -8 1 -5
2 -13 3 -16 0 -4 8 -1 17 7 13 11 13 15 2 24 -20 16 -39 53 -29 59 4 3 11 31
14 61 3 33 16 74 31 100 15 24 26 48 25 52 -3 19 2 33 12 33 6 0 9 -19 7 -47z
m121 3 c-3 -3 -11 5 -18 17 -13 21 -12 21 5 5 10 -10 16 -20 13 -22z m-588 -3
c-8 -15 -10 -15 -11 -2 0 17 10 32 18 25 2 -3 -1 -13 -7 -23z m2299 17 c0 -5
-4 -10 -10 -10 -5 0 -10 5 -10 10 0 6 5 10 10 10 6 0 10 -4 10 -10z m206 -16
c-4 -9 -9 -15 -11 -12 -3 3 -3 13 1 22 4 9 9 15 11 12 3 -3 3 -13 -1 -22z m78
1 c-4 -8 -12 -15 -20 -15 -8 0 -11 6 -8 15 4 8 12 15 20 15 8 0 11 -6 8 -15z
m-2457 -122 c-2 -16 -4 -3 -4 27 0 30 2 43 4 28 2 -16 2 -40 0 -55z m-150 45
c-3 -8 -6 -5 -6 6 -1 11 2 17 5 13 3 -3 4 -12 1 -19z m110 -10 c-3 -7 -5 -2
-5 12 0 14 2 19 5 13 2 -7 2 -19 0 -25z m-139 -37 c-13 -15 -25 -27 -27 -25
-4 4 39 54 47 54 2 0 -7 -13 -20 -29z m2392 -19 c0 -20 -44 -102 -55 -102 -8
0 18 126 27 131 18 11 28 1 28 -29z m180 -5 c22 6 25 -4 10 -27 -8 -13 -10
-12 -10 3 0 9 -5 16 -11 15 -6 -2 -13 3 -14 10 -2 7 -1 8 1 3 3 -5 14 -7 24
-4z m-80 -39 c0 -4 -4 -8 -10 -8 -5 0 -10 4 -10 9 0 5 -3 18 -6 28 -5 16 -4
16 10 -1 9 -11 16 -23 16 -28z m-1193 -5 c-3 -10 -5 -4 -5 12 0 17 2 24 5 18
2 -7 2 -21 0 -30z m1379 -30 c-3 -7 -12 -10 -20 -7 -12 4 -12 11 -4 37 11 30
11 30 20 7 5 -13 6 -30 4 -37z m-2669 15 c-3 -7 -5 -2 -5 12 0 14 2 19 5 13 2
-7 2 -19 0 -25z m63 -60 c15 -51 20 -117 8 -124 -4 -3 -8 3 -8 13 0 15 -2 15
-9 4 -5 -8 -19 -16 -30 -18 -16 -2 -21 3 -21 18 0 16 4 19 21 14 21 -7 21 -5
14 64 -8 80 5 95 25 29z m2364 -11 c13 -52 -5 -69 -39 -37 -24 22 -24 24 -7
52 21 36 34 31 46 -15z m226 31 c0 -7 -8 -42 -16 -78 -9 -36 -20 -83 -24 -105
-13 -67 -13 -65 -76 -240 -42 -116 -58 -150 -109 -225 -70 -104 -159 -203
-215 -237 -46 -28 -173 -63 -230 -63 -42 1 -44 2 -26 15 11 8 35 15 53 15 44
0 42 14 -3 28 -30 9 -39 8 -51 -4 -8 -7 -30 -14 -49 -14 -22 0 -37 -6 -40 -15
-4 -9 -19 -15 -38 -15 -28 1 -29 2 -11 12 11 6 33 22 49 35 22 18 36 23 60 18
29 -5 30 -5 9 7 l-21 13 23 29 23 28 76 -22 c82 -25 92 -46 17 -37 l-46 6 54
-25 c52 -24 54 -24 80 -7 14 9 34 19 44 20 10 2 29 11 43 20 26 16 26 17 5 25
-12 4 -21 12 -21 18 0 5 -7 10 -15 10 -19 0 -20 16 -1 23 8 3 16 16 19 29 3
20 6 19 23 -17 l19 -40 3 55 c3 51 7 58 58 111 37 39 54 66 54 83 0 19 11 34
43 56 103 75 113 86 137 162 12 40 26 82 31 93 5 11 13 45 18 75 23 126 33
170 42 170 5 0 9 -6 9 -12z m-125 -36 c-8 -9 -25 20 -18 31 3 5 10 2 15 -7 6
-10 7 -20 3 -24z m-2388 -47 c12 -5 28 -26 36 -46 13 -33 13 -38 0 -43 -24 -9
-55 -7 -48 4 3 5 1 19 -5 30 -6 11 -13 33 -15 48 -2 15 -6 41 -9 57 -6 27 -5
26 7 -5 7 -19 23 -39 34 -45z m340 -42 c-7 -51 -27 -67 -27 -21 0 20 3 43 6
52 11 28 26 5 21 -31z m1912 13 c9 -11 10 -20 1 -35 -14 -27 -27 -27 -32 2 -8
43 8 60 31 33z m91 -7 c0 -11 -80 -139 -87 -139 -2 0 8 23 22 51 14 27 30 61
35 75 10 24 30 33 30 13z m-1513 -36 c2 -6 -3 -13 -12 -16 -10 -5 -15 0 -15
14 0 21 21 22 27 2z m-327 3 c0 -3 -4 -8 -10 -11 -5 -3 -10 -1 -10 4 0 6 5 11
10 11 6 0 10 -2 10 -4z m570 -31 c0 -5 -5 -3 -10 5 -5 8 -10 20 -10 25 0 6 5
3 10 -5 5 -8 10 -19 10 -25z m754 0 c3 -8 12 -15 20 -15 16 0 23 -19 29 -83 3
-36 0 -42 -41 -73 -71 -54 -70 -56 -40 119 11 66 20 81 32 52z m569 -9 c3 -8
-4 -23 -16 -33 -41 -37 -49 -36 -25 6 25 44 33 49 41 27z m-1993 -6 c-22 -7
-22 -8 -5 -10 11 -1 24 -2 29 -1 5 1 4 -5 -4 -13 -8 -10 -28 -16 -54 -15 -22
0 -34 3 -26 6 8 4 21 14 28 25 7 10 23 18 35 17 21 -1 20 -2 -3 -9z m80 6 c0
-3 -4 -8 -10 -11 -5 -3 -10 -1 -10 4 0 6 5 11 10 11 6 0 10 -2 10 -4z m134
-26 c22 -8 26 -14 17 -20 -15 -9 -66 3 -87 21 -19 16 2 31 25 19 9 -4 29 -13
45 -20z m-617 -76 c-3 -3 -12 -4 -19 -1 -8 3 -5 6 6 6 11 1 17 -2 13 -5z m998
-83 c-3 -6 -14 -11 -23 -11 -15 1 -15 2 2 15 21 16 32 13 21 -4z m254 -173
c50 -101 82 -172 71 -158 -31 40 -177 340 -166 340 3 0 46 -82 95 -182z m1048
167 c0 -14 -85 -61 -94 -52 -4 5 77 67 87 67 4 0 7 -7 7 -15z m-1451 -56 c32
-7 64 -15 69 -19 6 -4 44 -13 85 -20 41 -7 80 -16 85 -20 6 -4 29 -11 52 -15
24 -4 45 -11 49 -16 3 -5 10 -7 15 -4 5 4 9 -1 9 -9 0 -13 -5 -13 -47 0 -27 8
-109 28 -183 44 -170 37 -269 68 -224 69 17 1 57 -4 90 -10z m293 -10 c17 -6
36 -20 42 -30 12 -24 8 -24 -41 1 -64 33 -65 51 -1 29z m147 -18 c54 -19 149
-79 140 -88 -3 -3 -18 -1 -34 5 -24 8 -31 7 -40 -9 -12 -19 -13 -19 -51 0 -38
20 -51 37 -51 68 0 9 -8 22 -17 29 -25 19 -6 17 53 -5z m651 -23 c-3 -8 -6 -5
-6 6 -1 11 2 17 5 13 3 -3 4 -12 1 -19z m-489 -103 c48 -24 101 -48 114 -49
19 -2 218 -102 218 -110 0 -11 -86 2 -125 19 -16 7 -49 20 -72 30 -27 11 -40
22 -36 31 4 10 0 12 -11 8 -10 -4 -16 -1 -16 7 0 8 -28 28 -61 44 -55 27 -80
45 -64 45 3 0 27 -11 53 -25z m-118 -25 c0 -5 -4 -12 -10 -15 -5 -3 -10 -4
-10 -1 0 2 -3 12 -6 20 -5 12 -2 15 10 10 9 -3 16 -10 16 -14z m527 -67 c-43
-82 -163 -213 -196 -213 -4 0 23 30 59 68 37 37 83 93 104 126 37 59 60 72 33
19z m-312 -23 c7 0 42 -14 77 -30 34 -17 78 -33 96 -36 37 -7 39 -14 13 -38
-17 -16 -22 -15 -92 19 -40 19 -79 35 -85 35 -7 0 -17 14 -23 31 -11 31 -14
56 -4 32 2 -7 11 -13 18 -13z m451 -11 c4 -7 1 -10 -7 -7 -8 3 -24 1 -36 -3
-12 -5 -25 -4 -28 1 -5 8 14 14 52 19 6 0 15 -4 19 -10z m-131 -49 c3 -5 -1
-10 -9 -10 -9 0 -16 5 -16 10 0 6 4 10 9 10 6 0 13 -4 16 -10z m-327 -46 c159
-37 151 -34 111 -55 -44 -23 -84 -23 -134 0 -36 17 -109 81 -92 81 4 0 56 -11
115 -26z m-3 -104 c8 -13 -5 -13 -25 0 -13 8 -13 10 2 10 9 0 20 -4 23 -10z
m200 -50 c-3 -5 -12 -10 -20 -10 -8 0 -17 5 -20 10 -4 6 5 10 20 10 15 0 24
-4 20 -10z"/>
<path d="M3340 4966 c0 -9 -7 -30 -16 -47 -14 -29 -12 -69 5 -69 10 0 25 119
17 128 -3 3 -6 -2 -6 -12z"/>
<path d="M1 4908 c0 -44 3 -57 9 -43 12 28 12 93 0 100 -6 4 -10 -17 -9 -57z"/>
<path d="M1813 4910 c0 -30 2 -43 4 -27 2 15 2 39 0 55 -2 15 -4 2 -4 -28z"/>
<path d="M2340 4866 c-19 -7 -57 -16 -85 -20 -27 -5 -56 -13 -62 -18 -8 -6
-13 -7 -13 -1 0 5 -42 -1 -92 -15 -51 -13 -102 -25 -113 -27 -145 -25 -198
-42 -191 -62 3 -8 6 -18 6 -23 0 -5 9 -12 20 -15 17 -5 20 -15 20 -72 l0 -66
53 7 c28 4 55 11 60 15 4 4 2 23 -6 42 -7 19 -12 41 -11 49 1 8 2 20 3 27 1
11 26 24 45 22 5 0 12 4 16 10 3 7 14 9 23 5 13 -5 17 -19 17 -68 0 -35 3 -65
6 -68 3 -3 20 -2 37 2 18 4 44 11 59 14 27 6 27 7 13 40 -14 32 -15 90 -2 102
3 4 17 7 31 8 14 0 28 7 31 13 2 7 12 10 20 6 14 -5 16 -18 13 -74 -2 -43 1
-70 8 -73 6 -2 35 2 65 8 58 14 57 11 46 86 -4 31 -7 35 -33 33 l-29 -2 29 9
c17 5 34 16 38 25 5 8 18 15 28 15 25 0 29 8 23 48 -6 36 -17 38 -73 18z"/>
<path d="M986 4825 c4 -9 0 -15 -10 -15 -9 0 -16 -7 -16 -15 0 -20 26 -19 34
1 9 23 7 44 -4 44 -5 0 -7 -7 -4 -15z"/>
<path d="M2 4711 c-2 -91 0 -102 13 -91 10 8 12 17 6 24 -6 7 -12 48 -14 91
-3 76 -3 75 -5 -24z"/>
<path d="M1802 4780 c0 -14 2 -19 5 -12 2 6 2 18 0 25 -3 6 -5 1 -5 -13z"/>
<path d="M830 4763 c0 -15 2 -15 24 -7 22 9 20 20 -4 20 -11 0 -20 -6 -20 -13z"/>
<path d="M2411 4754 c0 -11 3 -14 6 -6 3 7 2 16 -1 19 -3 4 -6 -2 -5 -13z"/>
<path d="M710 4733 c0 -7 4 -13 9 -13 5 0 13 6 19 13 8 10 6 13 -9 13 -10 0
-19 -6 -19 -13z"/>
<path d="M910 4720 c0 -21 4 -30 13 -27 6 2 12 14 12 27 0 13 -6 25 -12 28 -9
2 -13 -7 -13 -28z"/>
<path d="M1056 4742 c-3 -6 1 -12 9 -16 9 -3 12 -12 8 -23 -5 -14 -3 -15 6 -7
15 14 11 46 -6 51 -6 2 -14 0 -17 -5z"/>
<path d="M2182 4693 c-2 -48 6 -75 20 -67 5 4 5 10 -1 18 -5 6 -11 29 -14 51
l-4 40 -1 -42z"/>
<path d="M592 4708 c5 -15 28 -23 28 -10 0 5 -7 13 -16 16 -10 4 -14 1 -12 -6z"/>
<path d="M967 4683 c-4 -20 -4 -40 -1 -45 5 -8 98 -58 109 -58 3 0 5 22 5 48
0 48 0 49 -48 70 -27 12 -51 22 -54 22 -3 0 -8 -16 -11 -37z"/>
<path d="M1267 4714 c-3 -5 1 -15 9 -22 16 -14 18 -5 5 17 -5 7 -11 9 -14 5z"/>
<path d="M3732 4555 c-7 -71 -28 -258 -47 -415 -18 -157 -37 -312 -40 -345 -4
-33 -24 -202 -45 -375 -62 -493 -121 -991 -170 -1410 -16 -146 -37 -321 -45
-390 -8 -69 -23 -201 -34 -295 -25 -213 -48 -421 -56 -505 -9 -90 -18 -104
-65 -96 -21 3 -85 22 -142 41 -102 35 -105 35 -147 20 -56 -19 -147 -19 -252
1 -97 18 -140 34 -171 64 -13 12 -49 35 -81 50 -54 27 -175 108 -207 139 -18
17 -89 50 -110 51 -10 0 -9 -4 5 -14 11 -8 45 -37 75 -65 30 -28 58 -51 62
-51 4 0 8 -5 8 -10 0 -14 -74 36 -170 115 -41 33 -81 64 -88 69 -29 18 -777
284 -1172 417 -174 59 -241 86 -257 104 -12 14 -26 25 -31 25 -5 0 -24 22 -43
50 -47 69 -53 64 -63 -44 -5 -44 -18 -61 -41 -52 -12 4 -15 11 -9 24 4 9 8 40
9 67 1 28 3 57 6 65 6 20 -31 14 -47 -8 -7 -10 -16 -13 -21 -8 -4 5 -3 10 2
12 10 4 11 81 1 92 -3 2 -8 -14 -12 -37 -4 -22 -9 -41 -13 -41 -3 0 -5 -19 -5
-42 1 -24 -7 -63 -17 -87 -11 -24 -17 -53 -13 -63 9 -29 -15 -76 -47 -92 -23
-12 -29 -12 -29 -1 0 22 30 85 41 85 5 0 8 4 5 9 -3 5 3 35 14 66 24 71 25 75
3 75 -10 0 -36 7 -58 14 -30 11 -42 11 -47 3 -4 -7 -3 -16 2 -21 16 -16 11
-52 -10 -71 -24 -22 -71 -24 -92 -5 -13 13 -12 21 12 75 l27 61 -53 21 -54 21
0 -849 c0 -467 3 -849 7 -849 3 0 22 12 42 27 20 16 42 27 48 25 7 -2 13 1 13
6 0 13 80 63 112 69 15 3 28 10 28 15 0 15 42 -3 85 -36 22 -18 58 -44 80 -58
59 -38 115 -89 90 -82 -17 5 -16 3 5 -16 14 -12 19 -19 13 -15 -14 7 -18 -11
-5 -19 5 -3 8 -19 7 -36 l-2 -30 940 0 939 0 -6 25 c-4 14 -33 88 -66 163 -65
153 -78 192 -61 192 6 0 11 -4 11 -10 0 -5 5 -10 10 -10 15 0 1 111 -16 131
-8 8 -14 20 -14 26 0 26 -43 104 -70 126 -16 14 -27 27 -24 29 2 3 -11 4 -28
3 -44 -3 -58 3 -58 26 0 10 -4 19 -10 19 -5 0 -10 11 -10 25 0 19 -5 25 -22
26 -22 1 -22 1 2 9 l25 7 -26 11 c-15 6 -29 20 -32 31 -5 21 19 65 33 56 13
-8 21 26 9 41 -20 24 1 15 50 -20 64 -47 172 -100 312 -152 151 -56 234 -74
387 -81 68 -3 118 -9 112 -13 -17 -10 25 -20 86 -20 48 0 52 -2 85 -46 59 -80
160 -143 324 -204 191 -71 345 -107 345 -80 0 6 -10 10 -23 10 -38 0 -130 31
-121 40 5 5 39 3 77 -4 100 -19 89 -13 -97 54 -135 47 -156 58 -156 74 0 18
-16 22 -22 5 -4 -13 -70 22 -111 60 -16 14 -38 43 -49 64 -18 35 -18 40 -4 56
9 10 16 22 16 28 0 15 89 -5 202 -45 98 -35 138 -30 138 18 0 16 7 35 15 43 8
8 11 17 8 21 -11 11 33 194 57 235 8 14 10 13 11 -4 2 -37 18 35 33 150 29
212 29 207 14 216 -10 7 -10 11 0 17 10 7 12 348 10 1673 -3 1444 -5 1647 -16
1534z m-3527 -3095 c-4 -12 -9 -19 -12 -17 -3 3 -2 15 2 27 4 12 9 19 12 17 3
-3 2 -15 -2 -27z m474 10 c21 -10 41 -17 43 -14 13 13 61 -23 74 -56 17 -41
74 -74 241 -136 54 -20 112 -42 128 -49 74 -32 185 -73 215 -80 l32 -7 -4 41
c-4 51 -20 52 207 -16 l81 -24 -4 -34 c-4 -29 -1 -35 15 -35 24 0 43 -19 43
-42 0 -21 -29 -24 -49 -5 -11 10 -13 9 -8 -5 3 -9 2 -31 -3 -50 -5 -18 -11
-118 -15 -223 -3 -104 -10 -219 -15 -255 -14 -96 -13 -217 2 -202 8 8 16 8 32
0 12 -7 33 -11 48 -9 26 2 26 1 15 -28 -13 -37 -21 -38 -41 -10 l-14 21 -4
-23 c-2 -15 -9 -23 -18 -21 -32 8 -35 6 -33 -15 2 -13 -2 -23 -7 -23 -11 0
-222 112 -331 176 -37 21 -75 51 -85 66 -10 15 -20 25 -23 22 -2 -2 -13 13
-23 34 -10 20 -31 57 -48 82 -16 25 -52 90 -81 145 -52 102 -119 185 -150 185
-10 0 -19 -10 -22 -27 -15 -81 -27 -153 -31 -192 -2 -24 -9 -48 -14 -53 -6 -6
-65 19 -158 67 -82 43 -153 81 -157 84 -4 4 6 46 23 94 17 47 33 114 36 149 3
35 20 113 37 173 31 111 41 238 23 293 -9 27 -5 27 43 2z m-523 -53 c-16 -57
-37 -84 -56 -72 -6 4 -8 16 -4 28 8 26 66 109 72 103 2 -3 -3 -29 -12 -59z
m1841 -529 c-3 -7 -5 -2 -5 12 0 14 2 19 5 13 2 -7 2 -19 0 -25z m640 -144
c-3 -3 -12 -4 -19 -1 -8 3 -5 6 6 6 11 1 17 -2 13 -5z m-811 -99 c23 -19 46
-35 52 -35 5 0 9 -7 9 -15 0 -21 -10 -19 -38 11 -13 14 -36 32 -51 40 -16 8
-28 19 -28 24 0 17 11 12 56 -25z m1334 -14 c0 -5 11 -19 25 -32 14 -13 30
-32 36 -42 9 -16 8 -17 -8 -8 -22 13 -52 39 -77 69 -19 22 -19 22 2 22 12 0
22 -4 22 -9z m-1326 -350 c8 -12 -31 -44 -44 -36 -8 5 -6 13 6 26 19 21 30 24
38 10z"/>
<path d="M2388 4663 c7 -3 16 -2 19 1 4 3 -2 6 -13 5 -11 0 -14 -3 -6 -6z"/>
<path d="M1320 4616 c0 -9 5 -16 10 -16 6 0 10 4 10 9 0 6 -4 13 -10 16 -5 3
-10 -1 -10 -9z"/>
<path d="M1356 4608 c-3 -7 -7 -32 -10 -55 -5 -34 -3 -43 9 -43 12 0 15 13 15
55 0 52 -6 70 -14 43z"/>
<path d="M1980 4603 c0 -13 5 -23 10 -23 13 0 13 11 0 30 -8 12 -10 11 -10 -7z"/>
<path d="M1177 4522 c-3 -9 -6 -48 -7 -85 -1 -49 2 -67 10 -62 7 4 6 -1 -2
-15 -11 -18 -11 -23 6 -36 11 -8 25 -14 31 -14 17 0 14 33 -3 46 -12 9 -12 13
-2 19 9 5 11 4 6 -3 -4 -7 -3 -12 3 -12 5 0 13 14 16 31 5 21 10 27 15 19 12
-19 30 -2 30 29 0 36 -10 45 -26 23 -12 -15 -13 -14 -14 15 0 26 -6 36 -29 48
-27 14 -30 13 -34 -3z"/>
<path d="M665 4490 c-99 -21 -197 -43 -219 -48 -21 -6 -44 -8 -51 -6 -16 7
-39 -22 -31 -41 3 -8 12 -15 21 -15 10 0 15 -10 15 -34 0 -53 9 -66 44 -66 40
0 49 8 31 27 -22 21 -19 70 4 83 34 18 41 11 41 -34 0 -52 9 -60 56 -51 33 6
34 7 19 28 -21 30 -19 60 5 82 27 25 38 11 41 -48 l3 -49 40 6 c50 9 52 10 32
38 -22 30 -20 53 5 77 27 25 47 18 41 -17 -2 -15 1 -39 7 -55 11 -28 16 -29
85 -10 17 5 17 6 3 14 -8 5 -19 23 -22 40 -6 26 -3 36 19 56 21 19 24 28 16
43 -6 11 -14 20 -18 19 -4 0 -88 -18 -187 -39z"/>
<path d="M1124 4454 c3 -9 6 -22 6 -30 0 -9 5 -12 10 -9 17 10 12 55 -6 55
-11 0 -14 -5 -10 -16z"/>
<path d="M871 4434 c0 -11 3 -14 6 -6 3 7 2 16 -1 19 -3 4 -6 -2 -5 -13z"/>
<path d="M908 4435 c-8 -8 3 -55 12 -55 12 0 23 38 15 50 -7 11 -19 13 -27 5z"/>
<path d="M334 4330 c-18 -7 -21 -17 -22 -80 -1 -60 1 -70 12 -61 16 13 49 4
40 -11 -4 -6 -10 -5 -15 3 -8 12 -11 11 -19 -1 -15 -24 -13 -60 5 -54 21 8 34
-3 28 -26 -3 -11 -14 -20 -24 -20 -24 0 -26 -35 -3 -44 14 -5 15 -4 5 8 -10
12 -9 13 9 9 25 -7 21 -28 -6 -27 -14 0 -21 -7 -22 -23 -1 -13 4 -23 11 -23 8
0 7 -4 -3 -10 -13 -9 -13 -10 0 -10 12 0 13 -2 1 -9 -7 -5 -11 -13 -7 -19 3
-6 1 -12 -6 -14 -14 -5 -3 -38 13 -38 6 0 9 7 6 15 -7 18 9 30 19 14 4 -7 -2
-20 -14 -30 -12 -9 -22 -25 -22 -34 0 -14 3 -15 13 -6 16 12 27 5 27 -18 0
-11 -3 -12 -8 -4 -4 7 -13 9 -21 4 -13 -8 -10 -66 5 -79 4 -4 4 1 1 11 -4 11
-1 17 8 17 22 0 18 -38 -5 -45 -26 -8 -26 -25 1 -25 15 0 19 -4 15 -16 -3 -9
-6 -18 -6 -20 0 -2 -4 -4 -10 -4 -5 0 -6 7 -3 17 4 11 3 14 -5 9 -18 -11 -16
-57 2 -50 24 9 30 -18 9 -35 -27 -21 -31 -109 -5 -107 29 2 26 -33 -3 -40
l-27 -7 27 -17 c24 -16 25 -18 9 -31 -16 -12 -17 -12 -11 4 5 13 3 17 -5 15
-19 -7 -23 -58 -4 -58 8 0 17 -4 20 -9 10 -15 -6 -43 -20 -37 -9 4 -14 -2 -14
-15 0 -16 4 -19 20 -14 21 7 25 -2 14 -29 -6 -15 -8 -15 -20 1 -12 17 -13 16
-14 -9 0 -22 5 -28 21 -28 24 0 23 -30 -1 -38 -13 -5 -13 -3 -1 12 12 14 12
16 -1 11 -30 -12 -41 -212 -13 -235 15 -12 11 -35 -5 -25 -15 9 -23 -15 -26
-76 -1 -35 1 -57 7 -54 5 4 9 12 9 19 0 7 8 20 18 30 18 15 20 15 35 -2 10
-10 17 -30 17 -43 0 -31 17 -49 47 -49 20 0 22 3 13 19 -14 28 -13 48 5 55 24
9 43 -3 38 -24 -7 -27 13 -57 43 -64 34 -9 37 -4 22 29 -11 24 -10 29 6 41 31
22 55 1 53 -45 -2 -22 -1 -38 1 -37 2 2 19 0 38 -4 19 -4 37 -4 40 1 3 5 0 9
-5 9 -20 0 -12 59 9 70 49 26 12 55 -82 64 -120 12 -242 27 -246 31 -3 2 0 17
6 32 6 15 11 53 11 83 -1 94 -3 90 39 90 36 0 40 2 50 39 17 54 16 61 -18 114
-16 25 -25 49 -20 52 4 3 18 -11 31 -32 20 -32 23 -34 30 -17 4 10 8 31 8 46
1 23 -5 29 -39 38 -21 6 -42 15 -45 20 -8 13 -4 13 38 -5 43 -18 47 -18 47 -5
0 5 -18 14 -40 20 -22 6 -40 12 -40 14 0 2 18 2 40 0 l40 -4 0 69 c0 84 -6
101 -34 101 -11 0 -28 5 -36 11 -11 8 -6 9 23 5 20 -2 37 -1 37 5 0 5 -10 9
-22 9 -13 0 -30 5 -38 11 -11 7 -4 8 23 3 l38 -6 -3 117 c-3 113 -4 118 -28
133 l-25 16 19 -22 c24 -27 13 -29 -20 -3 -40 32 -27 47 25 29 l24 -9 -6 98
c-3 55 -10 99 -16 101 -6 2 -11 8 -11 13 0 6 5 7 10 4 6 -4 10 5 10 20 0 18
-6 29 -20 32 -11 3 -17 9 -14 14 3 5 9 7 14 4 4 -3 10 2 14 10 3 8 11 15 18
15 9 0 14 -19 17 -62 1 -35 6 -92 11 -128 l7 -65 2 55 c2 64 15 95 26 61 8
-27 45 -43 62 -29 19 15 16 55 -4 67 -10 6 -13 11 -7 11 6 0 17 -7 24 -15 15
-18 30 -11 30 16 0 10 4 19 8 19 4 0 6 -15 4 -33 -3 -27 1 -35 22 -46 30 -16
56 -2 56 30 0 11 4 19 9 19 5 0 12 11 15 25 4 14 11 25 16 25 5 0 7 -7 4 -15
-9 -23 3 -59 25 -72 26 -16 51 6 51 44 0 23 23 52 43 53 4 0 8 -10 8 -22 1
-17 3 -18 6 -6 4 18 40 34 50 24 4 -3 -1 -6 -11 -6 -19 0 -35 -35 -28 -62 2
-10 13 -18 23 -18 22 0 39 36 39 80 0 16 4 32 10 35 5 3 10 18 10 33 0 24 -7
30 -60 51 l-61 24 -197 -33 c-108 -19 -217 -34 -242 -34 l-45 -1 0 40 c-1 38
-21 96 -34 94 -3 0 -15 -4 -27 -9z m31 -79 c-7 -33 -12 -36 -35 -21 -12 8 -12
10 5 11 12 0 15 3 7 6 -10 4 -9 9 4 24 22 24 28 18 19 -20z m79 -200 c-6 -6
-34 20 -34 32 0 6 8 2 19 -9 10 -10 17 -21 15 -23z m-74 -80 c0 -6 -4 -13 -10
-16 -5 -3 -10 1 -10 9 0 9 5 16 10 16 6 0 10 -4 10 -9z m-10 -426 c0 -8 -4
-15 -10 -15 -5 0 -10 7 -10 15 0 8 5 15 10 15 6 0 10 -7 10 -15z m-15 -422
c-7 -17 -8 -17 -15 2 -9 24 -2 41 12 27 6 -6 7 -19 3 -29z m5 -53 c0 -11 -7
-20 -15 -20 -8 0 -15 9 -15 20 0 11 7 20 15 20 8 0 15 -9 15 -20z m0 -66 c0
-14 -3 -14 -15 -4 -8 7 -15 14 -15 16 0 2 7 4 15 4 8 0 15 -7 15 -16z"/>
<path d="M920 4315 c0 -14 5 -25 10 -25 6 0 10 11 10 25 0 14 -4 25 -10 25 -5
0 -10 -11 -10 -25z"/>
<path d="M1170 4284 c0 -8 24 -29 38 -31 19 -4 14 15 -7 27 -22 11 -31 13 -31
4z"/>
<path d="M1170 4241 c0 -10 31 -31 45 -31 11 0 -5 20 -26 30 -12 7 -19 7 -19
1z"/>
<path d="M1042 4226 c1 -10 8 -17 13 -17 15 1 12 24 -3 29 -9 3 -13 -2 -10
-12z"/>
<path d="M1165 4210 c-7 -12 33 -52 48 -47 6 2 12 8 15 15 4 14 -55 45 -63 32z"/>
<path d="M3286 4180 c-6 -16 -5 -25 3 -28 6 -2 11 -12 11 -21 0 -27 12 -33 31
-15 21 19 16 34 -11 34 -13 0 -20 8 -22 28 l-3 27 -9 -25z"/>
<path d="M1030 4184 c0 -3 7 -12 15 -20 13 -14 15 -13 15 5 0 12 -6 21 -15 21
-8 0 -15 -3 -15 -6z"/>
<path d="M1251 4154 c0 -11 3 -14 6 -6 3 7 2 16 -1 19 -3 4 -6 -2 -5 -13z"/>
<path d="M1170 3995 c7 -8 17 -12 22 -9 6 4 5 10 -3 15 -22 14 -33 10 -19 -6z"/>
<path d="M3395 3900 c-3 -5 -1 -10 4 -10 6 0 11 5 11 10 0 6 -2 10 -4 10 -3 0
-8 -4 -11 -10z"/>
<path d="M3464 3863 c-8 -13 -23 -17 -62 -16 -47 1 -51 -1 -42 -18 24 -44 86
-44 110 1 15 28 10 58 -6 33z"/>
<path d="M511 3713 c0 -70 3 -113 9 -113 11 0 11 75 0 165 -6 53 -7 48 -9 -52z"/>
<path d="M3143 3745 c0 -22 2 -30 4 -17 2 12 2 30 0 40 -3 9 -5 -1 -4 -23z"/>
<path d="M3134 3560 c0 -69 1 -97 3 -62 2 34 2 90 0 125 -2 34 -3 6 -3 -63z"/>
<path d="M3201 3592 c0 -12 -8 -25 -16 -28 -23 -9 -18 -42 8 -50 12 -4 25 -11
29 -17 10 -17 208 -9 236 9 12 8 22 19 22 25 0 6 -7 3 -16 -5 -12 -13 -39 -16
-131 -16 l-115 0 6 35 c4 20 3 35 -3 35 -5 0 -12 8 -14 18 -4 12 -5 11 -6 -6z"/>
<path d="M840 3565 c0 -11 -3 -29 -5 -40 -7 -26 8 -47 27 -40 17 7 32 45 17
45 -14 0 -11 30 4 31 6 1 21 2 31 3 11 0 21 6 23 12 2 6 -15 10 -47 10 -43 -1
-50 -4 -50 -21z"/>
<path d="M520 3500 c0 -35 2 -61 4 -59 8 8 10 108 3 116 -4 3 -7 -22 -7 -57z"/>
<path d="M310 3468 c0 -11 28 -10 35 1 3 6 -4 9 -15 8 -11 -1 -20 -5 -20 -9z"/>
<path d="M1291 3364 c0 -11 3 -14 6 -6 3 7 2 16 -1 19 -3 4 -6 -2 -5 -13z"/>
<path d="M776 3304 c-8 -22 -7 -34 3 -34 5 0 11 11 13 25 6 28 -6 34 -16 9z"/>
<path d="M907 3233 c-11 -10 -8 -51 4 -59 18 -10 32 13 25 40 -6 26 -16 32
-29 19z"/>
<path d="M550 3210 c0 -11 7 -20 15 -20 8 0 15 6 15 14 0 8 -7 16 -15 20 -10
4 -15 -1 -15 -14z"/>
<path d="M662 3202 c5 -23 28 -27 28 -4 0 10 -7 19 -15 19 -9 0 -15 -7 -13
-15z"/>
<path d="M780 3200 c0 -25 20 -36 31 -19 13 21 11 26 -11 32 -15 4 -20 0 -20
-13z"/>
<path d="M482 3165 c-7 -24 -8 -43 -2 -49 5 -5 11 6 15 27 10 52 0 69 -13 22z"/>
<path d="M1230 3180 c0 -11 5 -20 10 -20 6 0 10 9 10 20 0 11 -4 20 -10 20 -5
0 -10 -9 -10 -20z"/>
<path d="M2107 3183 c-13 -12 -7 -50 9 -64 14 -11 18 -10 30 6 17 23 18 37 2
53 -13 13 -31 16 -41 5z"/>
<path d="M2290 3175 c-18 -21 -4 -65 20 -65 27 0 44 34 30 60 -13 24 -33 26
-50 5z"/>
<path d="M1239 3137 c-20 -17 -55 -43 -78 -57 -47 -28 -59 -67 -16 -50 14 5
25 7 25 4 0 -4 6 -1 14 5 11 9 15 9 19 -1 4 -8 6 -7 6 5 1 9 6 17 11 17 6 0
11 -8 11 -17 1 -10 4 -5 8 11 8 40 23 42 45 5 10 -17 19 -29 21 -27 1 2 6 33
10 71 6 66 6 67 -17 67 -13 0 -39 -15 -59 -33z m15 -39 c-3 -4 -12 -8 -20 -8
-8 0 -13 4 -10 8 3 5 12 9 20 9 8 0 13 -4 10 -9z"/>
<path d="M1341 3154 c0 -11 3 -14 6 -6 3 7 2 16 -1 19 -3 4 -6 -2 -5 -13z"/>
<path d="M2602 3140 c0 -14 2 -19 5 -12 2 6 2 18 0 25 -3 6 -5 1 -5 -13z"/>
<path d="M1002 3127 c-9 -11 -10 -17 -2 -22 15 -9 23 -1 18 21 -3 15 -4 16
-16 1z"/>
<path d="M2473 3043 c9 -2 23 -2 30 0 6 3 -1 5 -18 5 -16 0 -22 -2 -12 -5z"/>
<path d="M1950 2989 c0 -5 5 -7 10 -4 6 3 10 8 10 11 0 2 -4 4 -10 4 -5 0 -10
-5 -10 -11z"/>
<path d="M2020 2979 c8 -13 7 -25 0 -40 -16 -29 -62 -22 -71 11 -6 23 -7 22
-8 -7 -1 -32 0 -33 44 -33 43 0 45 1 55 39 6 22 16 41 23 44 6 2 -3 4 -20 5
-30 1 -32 -1 -23 -19z"/>
<path d="M2127 2973 c-8 -19 -8 -29 3 -46 8 -13 12 -48 12 -87 -1 -36 3 -71 7
-79 5 -8 29 -17 54 -21 l44 -6 11 95 c8 83 8 100 -6 124 -9 15 -26 30 -37 32
-70 14 -76 13 -88 -12z m76 0 c-7 -2 -21 -2 -30 0 -10 3 -4 5 12 5 17 0 24 -2
18 -5z"/>
<path d="M990 2968 c0 -4 9 -8 20 -8 13 0 20 -7 20 -19 0 -27 15 -34 30 -16 9
11 10 18 1 29 -13 15 -71 27 -71 14z"/>
<path d="M2350 2944 c0 -9 7 -14 17 -12 25 5 28 28 4 28 -12 0 -21 -6 -21 -16z"/>
<path d="M2097 2923 c-12 -11 -8 -23 8 -23 8 0 15 7 15 15 0 16 -12 20 -23 8z"/>
<path d="M830 2894 c0 -8 5 -12 10 -9 6 3 10 10 10 16 0 5 -4 9 -10 9 -5 0
-10 -7 -10 -16z"/>
<path d="M2340 2900 c0 -4 6 -13 14 -19 12 -10 17 -8 25 7 9 17 7 20 -14 20
-14 0 -25 -4 -25 -8z"/>
<path d="M2370 2829 c0 -6 -8 -9 -19 -6 -16 4 -20 -3 -25 -41 -3 -24 -6 -56
-6 -69 0 -20 3 -22 19 -13 14 7 21 6 24 -3 8 -23 15 -2 22 71 6 51 4 72 -4 72
-6 0 -11 -5 -11 -11z"/>
<path d="M691 2784 c0 -11 3 -14 6 -6 3 7 2 16 -1 19 -3 4 -6 -2 -5 -13z"/>
<path d="M875 2760 c-10 -30 5 -47 22 -25 17 24 16 32 -1 38 -9 4 -17 -2 -21
-13z"/>
<path d="M2337 2643 c-4 -3 -7 -19 -7 -34 0 -15 -5 -31 -11 -34 -6 -5 -8 -23
-4 -49 9 -51 10 -52 30 -32 20 20 32 86 16 86 -8 0 -10 11 -5 35 6 32 -3 45
-19 28z"/>
<path d="M1184 2629 c-3 -6 -1 -16 5 -22 9 -9 14 -8 21 3 5 8 10 18 10 23 0
11 -28 8 -36 -4z"/>
<path d="M1938 2626 c-51 -38 -31 -128 29 -134 24 -2 32 -9 39 -35 6 -21 17
-33 33 -37 21 -5 22 -7 7 -19 -21 -18 -20 -44 2 -64 25 -23 41 -21 53 7 8 17
8 29 -1 46 -12 22 -12 22 42 14 29 -4 82 -8 117 -8 63 -1 65 0 72 28 8 28 7
28 -29 24 -34 -5 -215 14 -271 27 -22 6 -22 7 -7 24 9 10 16 35 16 58 0 64
-57 104 -102 69z m49 -22 c-3 -3 -12 -4 -19 -1 -8 3 -5 6 6 6 11 1 17 -2 13
-5z"/>
<path d="M2056 2552 c-2 -4 -1 -14 5 -22 7 -12 9 -10 9 8 0 23 -5 28 -14 14z"/>
<path d="M176 2437 c2 -7 -2 -32 -11 -56 -8 -24 -12 -47 -9 -52 3 -5 1 -9 -4
-9 -6 0 -13 -16 -16 -36 -9 -45 12 -81 46 -80 13 1 22 -4 21 -11 -3 -13 25
-38 33 -30 3 3 1 15 -6 27 -15 28 -40 162 -40 216 0 24 -4 44 -10 44 -5 0 -7
-6 -4 -13z"/>
<path d="M2226 2374 c-22 -22 -20 -50 6 -68 45 -32 81 30 40 67 -23 21 -27 21
-46 1z"/>
<path d="M2161 2364 c0 -11 3 -14 6 -6 3 7 2 16 -1 19 -3 4 -6 -2 -5 -13z"/>
<path d="M3035 2228 c-14 -45 -25 -130 -25 -196 0 -100 15 -126 24 -41 13 139
18 249 12 249 -4 0 -8 -6 -11 -12z"/>
<path d="M1375 2200 c3 -5 8 -10 11 -10 2 0 4 5 4 10 0 6 -5 10 -11 10 -5 0
-7 -4 -4 -10z"/>
<path d="M200 2096 c0 -8 5 -18 10 -21 6 -3 10 3 10 14 0 12 -4 21 -10 21 -5
0 -10 -6 -10 -14z"/>
<path d="M1185 2090 c-3 -5 -1 -10 4 -10 6 0 11 5 11 10 0 6 -2 10 -4 10 -3 0
-8 -4 -11 -10z"/>
<path d="M620 2046 c0 -2 24 -11 53 -21 28 -9 77 -33 107 -53 l55 -36 -43 -9
c-55 -11 -57 -32 -1 -23 23 4 46 3 53 -2 11 -9 76 -24 76 -18 0 2 -17 15 -37
29 -21 14 -62 48 -91 76 -29 28 -57 51 -63 51 -7 0 -7 -6 2 -16 12 -15 10 -15
-21 -2 -40 17 -90 30 -90 24z"/>
<path d="M750 1945 c7 -8 17 -15 22 -15 6 0 5 7 -2 15 -7 8 -17 15 -22 15 -6
0 -5 -7 2 -15z"/>
<path d="M726 1927 c3 -10 9 -15 12 -12 3 3 0 11 -7 18 -10 9 -11 8 -5 -6z"/>
<path d="M1325 1915 c-40 -14 -40 -14 -5 -9 19 4 39 10 45 15 11 11 10 11 -40
-6z"/>
<path d="M778 1753 c7 -3 16 -2 19 1 4 3 -2 6 -13 5 -11 0 -14 -3 -6 -6z"/>
<path d="M818 1743 c6 -2 18 -2 25 0 6 3 1 5 -13 5 -14 0 -19 -2 -12 -5z"/>
<path d="M868 1733 c6 -2 18 -2 25 0 6 3 1 5 -13 5 -14 0 -19 -2 -12 -5z"/>
<path d="M918 1723 c7 -3 16 -2 19 1 4 3 -2 6 -13 5 -11 0 -14 -3 -6 -6z"/>
<path d="M2048 1723 c7 -3 16 -2 19 1 4 3 -2 6 -13 5 -11 0 -14 -3 -6 -6z"/>
<path d="M978 1713 c7 -3 16 -2 19 1 4 3 -2 6 -13 5 -11 0 -14 -3 -6 -6z"/>
<path d="M1033 1683 c9 -2 23 -2 30 0 6 3 -1 5 -18 5 -16 0 -22 -2 -12 -5z"/>
<path d="M1088 1673 c6 -2 18 -2 25 0 6 3 1 5 -13 5 -14 0 -19 -2 -12 -5z"/>
<path d="M2936 1531 c-27 -14 -51 -31 -53 -37 -2 -6 16 -16 41 -23 55 -14 56
-14 56 0 0 5 -13 15 -30 20 -34 12 -31 29 6 29 14 0 27 7 31 15 9 25 1 24 -51
-4z"/>
<path d="M2801 1363 c-1 -12 4 -25 9 -28 12 -7 12 2 0 30 -8 19 -9 19 -9 -2z"/>
<path d="M2843 1352 c-7 -4 -8 -13 -4 -20 6 -10 10 -10 20 2 13 16 2 29 -16
18z"/>
<path d="M2850 1179 c0 -12 -4 -17 -11 -13 -6 3 -28 8 -48 10 l-36 4 28 -15
c15 -9 27 -22 27 -29 0 -8 18 -16 48 -19 26 -4 57 -9 70 -13 20 -6 22 -3 22
39 0 50 -9 57 -66 57 -28 0 -34 -4 -34 -21z"/>
<path d="M3670 913 c0 -4 5 -15 10 -23 8 -13 10 -13 10 2 0 9 -4 20 -10 23 -5
3 -10 3 -10 -2z"/>
</g>
</svg>
