<?xml version="1.0" standalone="no"?><svg xmlns="http://www.w3.org/2000/svg" viewBox="0 0 1440 320"><path fill="#ffffff" fill-opacity="1" d="M0,128L0,224L36.9,224L36.9,64L73.8,64L73.8,128L110.8,128L110.8,32L147.7,32L147.7,288L184.6,288L184.6,288L221.5,288L221.5,320L258.5,320L258.5,64L295.4,64L295.4,288L332.3,288L332.3,224L369.2,224L369.2,288L406.2,288L406.2,224L443.1,224L443.1,320L480,320L480,128L516.9,128L516.9,160L553.8,160L553.8,288L590.8,288L590.8,224L627.7,224L627.7,64L664.6,64L664.6,32L701.5,32L701.5,64L738.5,64L738.5,128L775.4,128L775.4,224L812.3,224L812.3,32L849.2,32L849.2,192L886.2,192L886.2,96L923.1,96L923.1,288L960,288L960,32L996.9,32L996.9,224L1033.8,224L1033.8,288L1070.8,288L1070.8,32L1107.7,32L1107.7,96L1144.6,96L1144.6,96L1181.5,96L1181.5,224L1218.5,224L1218.5,32L1255.4,32L1255.4,32L1292.3,32L1292.3,288L1329.2,288L1329.2,96L1366.2,96L1366.2,160L1403.1,160L1403.1,0L1440,0L1440,0L1403.1,0L1403.1,0L1366.2,0L1366.2,0L1329.2,0L1329.2,0L1292.3,0L1292.3,0L1255.4,0L1255.4,0L1218.5,0L1218.5,0L1181.5,0L1181.5,0L1144.6,0L1144.6,0L1107.7,0L1107.7,0L1070.8,0L1070.8,0L1033.8,0L1033.8,0L996.9,0L996.9,0L960,0L960,0L923.1,0L923.1,0L886.2,0L886.2,0L849.2,0L849.2,0L812.3,0L812.3,0L775.4,0L775.4,0L738.5,0L738.5,0L701.5,0L701.5,0L664.6,0L664.6,0L627.7,0L627.7,0L590.8,0L590.8,0L553.8,0L553.8,0L516.9,0L516.9,0L480,0L480,0L443.1,0L443.1,0L406.2,0L406.2,0L369.2,0L369.2,0L332.3,0L332.3,0L295.4,0L295.4,0L258.5,0L258.5,0L221.5,0L221.5,0L184.6,0L184.6,0L147.7,0L147.7,0L110.8,0L110.8,0L73.8,0L73.8,0L36.9,0L36.9,0L0,0L0,0Z"></path></svg>